<svg xmlns="http://www.w3.org/2000/svg" version="1.1" xmlns:xlink="http://www.w3.org/1999/xlink" xmlns:svgjs="http://svgjs.com/svgjs" width="512" height="512" x="0" y="0" viewBox="0 0 7111 7111" style="enable-background:new 0 0 512 512" xml:space="preserve" class=""><g><path fill="#d3effb" d="M1336 7111c358 0 694-138 945-390l3899-3898c32-33 32-86 0-118L4407 932c-33-33-86-33-118 0L391 4830c-522 522-522 1370 0 1891 251 252 587 390 945 390z" data-original="#d3effb"></path><path fill="#4a80aa" d="M6416 3011c107 0 208-41 283-117l296-296c156-155 156-409 0-565L5079 117c-156-156-410-156-566 0l-296 296c-155 155-155 409 0 565l1916 1916c76 76 176 117 283 117z" data-original="#4a80aa" class=""></path><path fill="#dd636e" d="M1372 6617c235 0 456-91 621-256l1614-1613c17-18 26-43 23-68-42-392-367-501-653-597-274-93-511-172-542-458-7-69-92-99-142-49L751 5118c-342 343-342 901 0 1243 165 165 386 256 621 256z" data-original="#dd636e"></path><g fill="#b35059"><path d="M2824 5008c155 0 281-126 281-281s-126-282-281-282c-156 0-282 127-282 282s126 281 282 281zM1876 5241c155 0 281-127 281-282s-126-281-281-281-282 126-282 281 127 282 282 282zM1466 6115c155 0 281-126 281-281s-126-281-281-281-281 126-281 281 126 281 281 281zM2352 4370c47 0 85-40 84-87l-1-25c-4-110-171-103-167 6l1 25c2 45 39 81 83 81zM2407 5109c47 0 85-40 83-87l-1-25c-4-110-170-103-166 6l1 25c1 45 38 81 83 81zM2074 5553c47 0 85-39 83-86l-1-25c-4-110-171-104-167 6l1 25c2 45 39 80 84 80zM1240 5421c47 0 85-39 84-86l-1-25c-5-110-171-104-167 6l1 25c2 45 39 80 83 80z" fill="#b35059" data-original="#b35059"></path></g><g fill="#b1e4f9"><path d="M5893 2992 4120 1219c-33-32-85-33-118 0l228-228 1891 1891-228 227c32-32 32-85 0-117z" fill="#b1e4f9" data-original="#b1e4f9"></path><path d="M4268 1367 598 5037c-487 487-519 1258-98 1782-621-498-671-1427-109-1989l3611-3611c32-32 85-33 118 0z" fill="#b1e4f9" data-original="#b1e4f9"></path></g></g></svg>
