<svg xmlns="http://www.w3.org/2000/svg" version="1.1" xmlns:xlink="http://www.w3.org/1999/xlink" xmlns:svgjs="http://svgjs.com/svgjs" width="512" height="512" x="0" y="0" viewBox="0 0 340 340" style="enable-background:new 0 0 512 512" xml:space="preserve" class=""><g><path fill="#ffd066" d="M271.412 7.409a3.479 3.479 0 0 0-4.927.277c-.849.956-20.682 23.714-10.5 57.565a3.49 3.49 0 1 0 6.685-2.005c-9-29.965 8.246-50.022 9.032-50.911a3.5 3.5 0 0 0-.29-4.926zM221.515 13.884a3.553 3.553 0 1 0 5.018-.269 3.552 3.552 0 0 0-5.018.269zM221.176 34.1a3.491 3.491 0 0 0-4.529-5.177c-.469.279-1.885 1.147-5.247 9.856a110.8 110.8 0 0 0-5.826 21.458c-2.684 16.091-2.953 40.353 10.943 64.594a3.5 3.5 0 0 0 3.033 1.755 3.535 3.535 0 0 0 1.736-.458 3.483 3.483 0 0 0 1.287-4.769c-24.531-42.781-2.554-85.159-1.397-87.259zM190.81 112.426a108.342 108.342 0 0 1 3.032-25.326 3.491 3.491 0 0 0-6.734-1.846c-.5 1.816-11.941 44.752 10.465 70.51a3.49 3.49 0 1 0 5.267-4.579c-9.527-10.956-12.03-26-12.03-38.759zM135.723 211.566c-.729-.588-18.316-14.335-50.818-14.874-32.022-.519-36.611-23.872-36.791-24.85a3.487 3.487 0 1 0-6.873 1.187c.05.3 5.586 30.028 43.545 30.646 29.927.489 46.388 13.189 46.587 13.348a3.457 3.457 0 0 0 2.175.758 3.484 3.484 0 0 0 2.175-6.215zM65.782 138.533a3.49 3.49 0 1 0-5.816 3.86c18.984 28.641 50.2 28.97 51.515 28.97a3.492 3.492 0 0 0 .01-6.983c-.291 0-28.84-.409-45.709-25.847zM78.384 73.079a3.488 3.488 0 0 0-3.491-3.491 39 39 0 0 1-33.37-17.977 3.489 3.489 0 0 0-6.075 3.432 45.983 45.983 0 0 0 39.445 21.528 3.5 3.5 0 0 0 3.491-3.492zM52.893 122.89a3.553 3.553 0 1 0 5.018-.259 3.551 3.551 0 0 0-5.018.259z" data-original="#ffd066"></path><path fill="#ed9d3e" d="M214.269 210.411a3.492 3.492 0 0 1-.946-6.853c42.044-11.864 56.175-39.78 56.312-40.06a3.492 3.492 0 0 1 6.28 3.055c-.611 1.258-15.464 30.963-60.7 43.725a3.474 3.474 0 0 1-.946.133zM92.216 83.6s10.332-40.45-31.692-51.69c0-.003-11.718 42.807 31.692 51.69z" data-original="#ed9d3e" class=""></path><path fill="#ffd066" d="M94.006 83.6S84.72 68.988 58.74 68.047c0 0-.653 20.7 17.385 31.41l2.364 6.607 35.3 10.687z" data-original="#ffd066"></path><path fill="#ffd066" d="M93.89 134.09s-21.363-9.408-17.765-34.633a28.3 28.3 0 0 0 13.175 5.275c7.693.881 19.437 4.5 25.607 12.035s15.528 32.17 15.528 32.17l-5.931 5.156c-12.816-1.659-22.567-9.193-30.614-20.003z" data-original="#ffd066"></path><path fill="#ffd066" d="M102.881 165.029s-12.788-11.4-8.991-30.939c0 0 4.9 4.609 14.32 5.321a30.983 30.983 0 0 1 25.208 18.023l9.294 29.444c-16.356-3.103-30.486-9.227-39.831-21.849z" data-original="#ffd066"></path><path fill="#ffd066" d="M137.455 214.719s-29.762-11.107-34.574-49.69c0 0 5.99 4.877 17.033 7.376s21.778 10.472 26.785 25.675l6.892 25.761z" data-original="#ffd066"></path><path fill="#ffd066" d="M159.641 253.759s-2.9-7.632-18.023-12.293-28.073-18.366-26.737-34.088a69.368 69.368 0 0 0 17.715 4.513c9.371 1.231 18.956 8.307 22.365 16z" data-original="#ffd066"></path><g fill="#ed9d3e"><path d="M112.114 121.85a255.684 255.684 0 0 0-20.055-32.592A27.932 27.932 0 0 1 87.243 67.2a41.1 41.1 0 0 1 8.9-18.85s28.263 16.56 15.971 73.5z" fill="#ed9d3e" data-original="#ed9d3e" class=""></path><path d="M129.372 155.765s-8.077-18.189-17.258-33.915a31.24 31.24 0 0 1 1.3-33.782 39.254 39.254 0 0 1 10.048-9.97s26.109 29.541 5.91 77.667z" fill="#ed9d3e" data-original="#ed9d3e" class=""></path><path d="M141.469 190.276s-5.841-18.255-12.1-34.511c-5.753-14.947-.433-32.167 13.162-40.635q.672-.417 1.368-.81s22.338 31.627-2.43 75.956z" fill="#ed9d3e" data-original="#ed9d3e" class=""></path><path d="m152.44 227.86-10.971-37.584s-3.671-21.1 18.14-36.8c0-.001 20.755 36.6-7.169 74.384z" fill="#ed9d3e" data-original="#ed9d3e" class=""></path><path d="M178.151 192.761s-21.159 4.836-25.423 23.254c-.911 3.933-1.369 7.956-.288 11.845l7.2 25.9s3.406-9.855 11.394-16.416c7.935-6.517 16.38-29.103 7.117-44.583zM259.448 81.81s-9.352-38.928 31.1-49.13c-.003 0 10.652 41.21-31.1 49.13z" fill="#ed9d3e" data-original="#ed9d3e" class=""></path><path d="M257.732 81.788s9.1-13.883 34.028-14.43c0 0 .343 19.861-17.1 29.88l-2.358 6.3-34 9.763z" fill="#ed9d3e" data-original="#ed9d3e" class=""></path><path d="M257.151 130.2s17.986-10.378 17.509-32.965a27.142 27.142 0 0 1-12.709 4.877c-7.389.739-18.7 4.053-24.719 11.189s-15.33 30.634-15.33 30.634l5.615 5.025c12.316-1.411 21.769-8.506 29.634-18.76z" fill="#ed9d3e" data-original="#ed9d3e" class=""></path><path d="M248.105 159.746s12.418-10.753 9.046-29.543c0 0-4.765 4.352-13.8 4.905a29.715 29.715 0 0 0-24.419 16.937l-9.315 28.105c15.721-2.75 29.354-8.43 38.488-20.404z" fill="#ed9d3e" data-original="#ed9d3e" class=""></path><path d="M214.271 206.918s28.691-10.242 33.834-47.172c0 0-5.811 4.594-16.433 6.839s-21.027 9.743-26.036 24.252l-6.962 24.606z" fill="#ed9d3e" data-original="#ed9d3e" class=""></path><path d="M192.463 244.047s2.888-7.277 17.45-11.539 27.17-17.225 26.1-32.32a66.505 66.505 0 0 1-17.048 4.085c-9 1.051-18.29 7.705-21.664 15.04z" fill="#ed9d3e" data-original="#ed9d3e" class=""></path></g><path fill="#ffd066" d="M239.844 118.217a245.089 245.089 0 0 1 19.677-30.977 26.786 26.786 0 0 0 4.921-21.088 39.418 39.418 0 0 0-8.272-18.2s-27.332 15.498-16.326 70.265z" data-original="#ffd066"></path><path fill="#ffd066" d="M222.831 150.5s7.994-17.33 17.013-32.283a29.96 29.96 0 0 0-.778-32.411 37.667 37.667 0 0 0-9.5-9.7s-25.443 27.97-6.735 74.394z" data-original="#ffd066"></path><path fill="#ffd066" d="M210.758 183.425S216.609 166 222.831 150.5c5.721-14.253.856-30.839-12.064-39.144q-.637-.411-1.3-.8s-21.851 30.024 1.291 72.869z" data-original="#ffd066"></path><path fill="#ffd066" d="m199.722 219.313 11.036-35.888s3.809-20.183-16.889-35.536c0 0-20.403 34.811 5.853 71.424z" data-original="#ffd066"></path><path fill="#ffd066" d="M180.093 186.839s15.006 7.882 19.516 21.112a18.835 18.835 0 0 1 .113 11.362l-7.259 24.734s-3.132-9.5-10.7-15.9c-7.519-6.354-10.763-26.592-1.67-41.308z" data-original="#ffd066"></path><path fill="#ed9d3e" d="M112.751 97.291a3.491 3.491 0 0 1-2.427-6c25.158-24.312 4.768-62.494 4.559-62.877a3.492 3.492 0 0 1 6.13-3.345 83.812 83.812 0 0 1 8.046 24.744c2.96 18.783-1.84 34.863-13.881 46.5a3.482 3.482 0 0 1-2.427.978zM149.815 166.222a3.491 3.491 0 0 1-2.111-6.275c30-22.724 12.638-72.091 12.459-72.587a3.492 3.492 0 1 1 6.57-2.37c.8 2.224 19.234 54.73-14.813 80.524a3.478 3.478 0 0 1-2.105.708zM253.661 133.834a66.16 66.16 0 0 1-4.41-.147 3.491 3.491 0 1 1 .462-6.967c30.191 1.99 48.913-20.3 49.1-20.521a3.492 3.492 0 0 1 5.405 4.422c-.81.989-19.342 23.213-50.557 23.213z" data-original="#ed9d3e" class=""></path><circle cx="157.685" cy="71.6" r="3.553" fill="#ed9d3e" data-original="#ed9d3e" class=""></circle><path fill="#ed9d3e" d="M151.023 224.762a3.471 3.471 0 0 1-2.27-.841 48.992 48.992 0 0 0-12.772-7.7 3.492 3.492 0 0 1 2.461-6.535 55.311 55.311 0 0 1 14.858 8.934 3.491 3.491 0 0 1-2.273 6.142zM139.677 188.279a3.486 3.486 0 0 1-2.8-1.4c-6.637-8.864-18.136-11.17-18.251-11.193a3.491 3.491 0 0 1 1.3-6.861c.578.108 14.244 2.783 22.544 13.869a3.492 3.492 0 0 1-2.792 5.584zM124.557 150.511a3.482 3.482 0 0 1-2.589-1.149c-5.227-5.773-13.911-6.462-14-6.468a3.491 3.491 0 0 1 .469-6.967c.469.03 11.55.844 18.706 8.749a3.492 3.492 0 0 1-2.588 5.835zM105.9 112.734a3.471 3.471 0 0 1-1.61-.4c-6.412-3.334-15.19-4.116-15.28-4.123a3.492 3.492 0 0 1 .584-6.959c.415.035 10.245.894 17.919 4.893a3.493 3.493 0 0 1-1.617 6.589z" data-original="#ed9d3e" class=""></path><path fill="#c96928" d="M156.585 333.483a3.45 3.45 0 0 1-.888-.116 3.491 3.491 0 0 1-2.491-4.263c14.226-54.182-6.854-122.317-27.042-169.935a647.74 647.74 0 0 0-47.928-91.584 3.491 3.491 0 1 1 5.837-3.832 655.851 655.851 0 0 1 48.52 92.69c29.983 70.717 39.19 129.406 27.367 174.434a3.492 3.492 0 0 1-3.375 2.606z" data-original="#c96928"></path><path fill="#c96928" d="M157.713 328.851a3.5 3.5 0 0 1-3.413-4.243c7.711-35-17.889-50.02-18.983-50.643a3.492 3.492 0 0 1 3.429-6.084c.313.177 31.224 18.064 22.373 58.229a3.492 3.492 0 0 1-3.406 2.741z" data-original="#c96928"></path><path fill="#ed9d3e" d="M200.1 213.9a3.49 3.49 0 0 1-3.374-2.606 28.012 28.012 0 0 0-6.029-11.544 3.492 3.492 0 0 1 4.955-4.922 34.52 34.52 0 0 1 7.827 14.693 3.493 3.493 0 0 1-3.379 4.379zM211.03 181.324a3.49 3.49 0 0 1-3.478-3.233c-.733-9.893-4.651-15.342-4.691-15.4a3.491 3.491 0 0 1 5.592-4.182c.211.28 5.168 6.989 6.063 19.062a3.492 3.492 0 0 1-3.224 3.74c-.092.01-.175.013-.262.013zM225.716 143.83a3.493 3.493 0 0 1-3.488-3.375 39.286 39.286 0 0 0-5.007-17.774 3.492 3.492 0 0 1 5.9-3.739 45.725 45.725 0 0 1 6.088 21.279 3.493 3.493 0 0 1-3.373 3.607zM243.667 109.659a3.546 3.546 0 0 1-.7-.07 3.492 3.492 0 0 1-2.728-4.116c1.387-6.843-1.737-13.551-1.77-13.617a3.492 3.492 0 0 1 6.282-3.05c.173.356 4.205 8.813 2.332 18.054a3.492 3.492 0 0 1-3.416 2.799z" data-original="#ed9d3e" class=""></path><path fill="#c96928" d="M182.206 331.917h-.15a3.492 3.492 0 0 1-3.341-3.636c3.709-88.128 28.83-157.109 49.251-199.457 22.168-45.971 44.5-70.153 45.379-71.184a3.491 3.491 0 0 1 5.3 4.541c-.211.247-22.732 24.688-44.511 69.92-20.084 41.713-44.792 109.659-48.446 196.475a3.492 3.492 0 0 1-3.482 3.341z" data-original="#c96928"></path><path fill="#c96928" d="M184.608 298.019a3.493 3.493 0 0 1-3.333-4.532c13.556-43.471 59.784-60.887 61.746-61.607a3.491 3.491 0 0 1 2.409 6.554c-.448.166-44.974 17-57.49 57.132a3.491 3.491 0 0 1-3.332 2.453z" data-original="#c96928"></path><path fill="#c96928" d="M182.523 324.329h-.169a3.492 3.492 0 0 1-3.322-3.653c1.145-24.134 13.453-37.854 23.577-45.113a61.442 61.442 0 0 1 21.93-10.018 3.492 3.492 0 0 1 1.329 6.856c-1.594.315-37.934 7.977-39.861 48.606a3.49 3.49 0 0 1-3.484 3.322z" data-original="#c96928"></path></g></svg>
