<svg xmlns="http://www.w3.org/2000/svg" version="1.1" xmlns:xlink="http://www.w3.org/1999/xlink" xmlns:svgjs="http://svgjs.com/svgjs" width="512" height="512" x="0" y="0" viewBox="0 0 512.043 512.043" style="enable-background:new 0 0 512 512" xml:space="preserve" class=""><g><path d="M436.437 164.8H330.709v191.627h173.227v-86.251l-20.203-69.824c-6.09-21.056-25.376-35.552-47.296-35.552" style="" fill="#ff7058" data-original="#ff7058"></path><path d="m478.645 269.291-18.005-62.24c-3.104-10.699-13.056-18.187-24.203-18.187h-81.664v80.427h123.872z" style="" fill="#84dbff" data-original="#84dbff"></path><path d="M478.667 269.259H354.731v-80.427z" style="" fill="#cdd6e0" data-original="#cdd6e0"></path><path d="m478.645 269.291-18.005-62.24c-3.104-10.699-13.056-18.187-24.203-18.187h-81.664l123.872 80.427z" style="" fill="#f2f2f2" data-original="#f2f2f2"></path><path d="M32 68.597h266.709c17.664 0 32 14.325 32 32v255.819H0V100.597c0-17.674 14.325-32 32-32" style="" fill="#ffd15c" data-original="#ffd15c" class=""></path><path d="M216.747 68.651v84.554l-12.374-12.373-12.97 12.971-12.96-12.971-12.96 12.971-12.982-12.971-13.13 12.971-12.95-12.971-12.522 12.523V68.651z" style="" fill="#f2f2f2" data-original="#f2f2f2"></path><path d="M512.043 356.405v36.16h-512v-36.16h53.44c12.48-22.4 36.48-37.547 64-37.547 27.413 0 51.413 15.147 64 37.547H353.43c12.48-22.4 36.363-37.547 63.883-37.547 27.52 0 51.413 15.147 64 37.547h30.73z" style="" fill="#334a5e" data-original="#334a5e"></path><path d="M468.416 392.341c0 28.224-22.88 51.104-51.104 51.104s-51.083-22.88-51.083-51.104 22.869-51.104 51.083-51.104c28.235 0 51.104 22.88 51.104 51.104" style="" fill="#40596b" data-original="#40596b"></path><path d="M437.856 392.341c0 11.339-9.195 20.523-20.523 20.523-11.339 0-20.544-9.184-20.544-20.523s9.195-20.523 20.544-20.523c11.328-.01 20.523 9.185 20.523 20.523" style="" fill="#acb3ba" data-original="#acb3ba"></path><path d="M168.544 392.341c0 28.224-22.891 51.104-51.104 51.104-28.224 0-51.104-22.88-51.104-51.104s22.88-51.104 51.104-51.104c28.213 0 51.104 22.88 51.104 51.104" style="" fill="#40596b" data-original="#40596b"></path><path d="M137.963 392.341c0 11.339-9.184 20.523-20.523 20.523s-20.533-9.184-20.533-20.523 9.195-20.523 20.533-20.523 20.523 9.185 20.523 20.523" style="" fill="#acb3ba" data-original="#acb3ba"></path></g></svg>
