<svg xmlns="http://www.w3.org/2000/svg" version="1.1" xmlns:xlink="http://www.w3.org/1999/xlink" xmlns:svgjs="http://svgjs.com/svgjs" width="512" height="512" x="0" y="0" viewBox="0 0 512 512" style="enable-background:new 0 0 512 512" xml:space="preserve" class=""><g><path d="M436.07 475.043c-4.202-21.102-20.705-104.208-21.16-105.891-2.751-10.352-7.527-17.293-15.096-23.476-6.711-5.509-13.733-7.47-18.669-8.9l-57.823-20.368-24.544-20.804v-18.903c-22.67 12.108-43.794 11.015-43.58 11.015-15.664 0-29.93-3.534-41.991-9.547l.021 18.266-25.238 20.237-13.005 4.472h-.029l.005.009c-52.927 18.754-50.007 17.37-49.904 17.34-6.841 2.551-13.31 6.717-18.321 12.31-11.508 12.84-10.618 22.919-30.793 124.241-.884 5.811-2.951 10.696-2.125 18.343C76.025 513.89 97.115 511.751 97.685 512h316.642c.624-.211 23.486 1.918 24.036-21.223.155-6.545-1.474-10.351-2.293-15.734z" style="" fill="#e6e7e8" data-original="#e6e7e8"></path><path d="M99.767 484.746c18.482-101.03 22.174-122.216 23.032-125.673 2.733-10.862 8.695-19.568 18.219-25.893-13.575 4.81-16.065 5.343-15.961 5.312-14.655 5.466-25.214 16.8-28.533 33.188-19.439 100.661-23.695 112.563-22.706 121.706C76.025 513.89 97.115 511.751 97.685 512h25.756c-18.172 0-26.024-10.627-23.674-27.254z" style="" fill="#dadada" data-original="#dadada"></path><path d="M298.777 276.701c-22.811 12.183-44.137 11.015-43.58 11.015-15.684 0-29.948-3.543-41.991-9.547l.021 18.266L224.26 512h63.547l10.97-216.396v-18.903z" style="" fill="#3aa8d8" data-original="#3aa8d8"></path><path d="M239.821 286.572c-9.232-1.52-18.127-4.172-26.614-8.403l.021 18.266L224.26 512h26.605l-11.032-215.564-.012-9.864z" style="" fill="#1990ba" data-original="#1990ba"></path><path d="M253.663.11c-66.419.254-122.741 54.516-122.741 123.611v44.695h247.257v-67.931c0-47.869-29.451-58.896-29.451-58.896C312.103-3.57 253.712.11 253.712.11" style="" fill="#4c4846" data-original="#4c4846"></path><path d="M270.364.848c-62.233-7.083-118.677 30.853-134.979 89.969-5.847 21.266-4.425 33.38-4.464 74.599h29.451v-41.695c0-63.682 48.196-116.095 109.992-122.873z" style="" fill="#3d3938" data-original="#3d3938"></path><path d="M375.441 419.793a7.727 7.727 0 0 0-15.454 0V512h15.454v-92.207zM152.026 419.793a7.727 7.727 0 0 0-15.454 0V512h15.454v-92.207z" style="" fill="#dadada" data-original="#dadada"></path><path d="m255.653 337.586-22.208 24.455 10.9 15.124h23.187l10.437-14.993-22.316-24.586z" style="" fill="#6c7d87" data-original="#6c7d87"></path><path d="M298.777 295.604 287.807 512l45.364-83.824a10.359 10.359 0 0 0-1.533-11.994l-12.87-13.809a7.883 7.883 0 0 1 .407-11.155l16.453-15.253a11.837 11.837 0 0 0 3.198-12.375l-15.505-47.182-24.544-20.804zM213.228 296.436 224.26 512l-44.991-83.135a11.45 11.45 0 0 1 1.694-13.257l13.144-14.104a6.7 6.7 0 0 0-.346-9.481l-16.989-15.75a12.702 12.702 0 0 1-3.475-13.144l14.693-46.458 25.238-20.235z" style="" fill="#dadada" data-original="#dadada"></path><path d="m213.228 296.435 3.126 61.079 1.873 2.697c4.191 5.479 12.411 5.573 16.727.193l20.699-22.819-42.425-41.15z" style="" fill="#70bbef" data-original="#70bbef"></path><path d="m241.222 323.588-27.994-27.153 3.126 61.079 1.873 2.697c4.191 5.479 12.411 5.573 16.727.193l7.717-8.507-1.449-28.309z" style="" fill="#3aa8d8" data-original="#3aa8d8"></path><path d="m292.901 360.212 2.806-4.04 3.071-60.568 1.132.959-1.132-.959-43.125 41.982 20.521 22.819c4.317 5.38 12.536 5.285 16.727-.193z" style="" fill="#70bbef" data-original="#70bbef"></path><path d="M298.777 274.64c-22.67 12.108-43.794 11.015-43.58 11.015-15.664 0-29.93-3.534-41.991-9.547l.021 20.327 42.425 41.15 43.125-41.982V274.64z" style="" fill="#dd9a5e" data-original="#dd9a5e" class=""></path><path d="M239.81 284.51c-9.11-1.501-18.023-4.124-26.603-8.401l.021 20.327 26.583 25.784v-37.71h-.001z" style="" fill="#d18c54" data-original="#d18c54"></path><path d="M267.531 377.164h-23.187l-23.089 76.121 1.082 21.13L255.938 512l33.785-37.789 1.038-20.464-23.23-76.583zM267.03 350.236l-11.377-12.651-22.208 24.455 10.9 15.124h22.852l-8.832-12.254a4.365 4.365 0 0 1 .311-5.488l8.354-9.186z" style="" fill="#566a75" data-original="#566a75"></path><path d="m270.571 495.632-22.279-24.921a17.428 17.428 0 0 1-3.685-16.674l23.121-76.225-.197-.648h-23.187l-20.187 66.552-2.903 9.57 1.082 21.13 12.013 13.438L255.938 512l14.633-16.368z" style="" fill="#4b5a68" data-original="#4b5a68"></path><path d="M162.433 155.857c-2.695-.96-7.685-1.505-10.76-1.505-13.056 0-23.64 9.513-23.64 21.248s10.584 21.248 23.64 21.248c3.076 0 8.065-.544 10.76-1.504v-39.487zM346.668 155.857c2.695-.96 7.685-1.505 10.76-1.505 13.056 0 23.64 9.513 23.64 21.248s-10.584 21.248-23.64 21.248c-3.076 0-8.065-.544-10.76-1.504v-39.487z" style="" fill="#dd9a5e" data-original="#dd9a5e" class=""></path><path d="M130.297 166.521c-7.341 13.94 3.907 30.327 21.376 30.327 3.076 0 8.065-.544 10.76-1.505v-18.157c-2.695.96-7.685 1.504-10.76 1.504-9.443.001-17.588-4.976-21.376-12.169zM357.428 178.691c-3.076 0-8.065-.544-10.76-1.504v18.157c2.695.96 7.685 1.505 10.76 1.505 13.056 0 23.64-9.513 23.64-21.248a19.4 19.4 0 0 0-2.264-9.079c-3.788 7.192-11.934 12.169-21.376 12.169z" style="" fill="#d18c54" data-original="#d18c54"></path><path d="M344.479 116.735c2.402.232 4.249 2.224 4.249 4.637 0 79.291.052 73.305-.133 76.992-1.533 30.253-17.291 56.89-41.046 73.034-60.892 41.5-147.177-.889-147.177-77.847v-40.786c0-18.466 16.388-32.554 34.664-29.916 28.785 4.155 70.799 2.541 107.46-28.796 3.767-3.22 9.484-2.18 11.89 2.153 4.542 8.18 13.575 18.935 30.093 20.529z" style="" fill="#edae6b" data-original="#edae6b" class=""></path><path d="M185.583 193.552v-70.588c-14.113 2.387-25.211 14.608-25.211 29.802v40.786c0 61.135 54.45 100.447 107.366 93.228-43.689-5.884-82.155-41.846-82.155-93.228z" style="" fill="#dd9a5e" data-original="#dd9a5e" class=""></path></g></svg>
