<svg xmlns="http://www.w3.org/2000/svg" version="1.1" xmlns:xlink="http://www.w3.org/1999/xlink" xmlns:svgjs="http://svgjs.com/svgjs" width="512" height="512" x="0" y="0" viewBox="0 0 58 58" style="enable-background:new 0 0 512 512" xml:space="preserve" class=""><g><g fill="none" fill-rule="nonzero"><g fill="#e57e25"><path d="m18 46-2.62 10.49A1.992 1.992 0 0 1 13.44 58H6.56a1.992 1.992 0 0 1-1.94-1.51L2 46l8-1zM37 46l-2.62 10.49A1.992 1.992 0 0 1 32.44 58h-6.88a1.992 1.992 0 0 1-1.94-1.51L21 46l8-2zM56 46l-2.62 10.49A1.992 1.992 0 0 1 51.44 58h-6.88a1.992 1.992 0 0 1-1.94-1.51L40 46l8-2z" fill="#e57e25" data-original="#e57e25"></path></g><path fill="#4fba6f" d="M8.005 18.767c2.523 2.523 1.958 7.179 1.958 7.179s-4.656.565-7.179-1.958c-1.752-1.752-2.486-5-2.771-6.828A1.016 1.016 0 0 1 1.177 16c1.823.281 5.076 1.015 6.828 2.767z" data-original="#4fba6f" class=""></path><path fill="#24ae5f" d="M12.009 13.779c-2.519 2.519-1.955 7.167-1.955 7.167s4.648.564 7.167-1.955C18.97 17.242 19.7 14 19.987 12.175a1.014 1.014 0 0 0-1.162-1.162c-1.825.287-5.067 1.017-6.816 2.766z" data-original="#24ae5f" class=""></path><path fill="#4fba6f" d="M27.005 23.767c2.523 2.523 1.958 7.179 1.958 7.179s-4.656.565-7.179-1.958c-1.752-1.752-2.486-5-2.771-6.828A1.016 1.016 0 0 1 20.177 21c1.823.281 5.076 1.015 6.828 2.767z" data-original="#4fba6f" class=""></path><path fill="#24ae5f" d="M31.009 18.779c-2.519 2.519-1.955 7.167-1.955 7.167s4.648.564 7.167-1.955c1.749-1.749 2.482-5 2.766-6.816a1.014 1.014 0 0 0-1.162-1.162c-1.825.287-5.067 1.017-6.816 2.766z" data-original="#24ae5f" class=""></path><path fill="#4fba6f" d="M46.005 7.767c2.523 2.523 1.958 7.179 1.958 7.179s-4.656.565-7.179-1.958c-1.752-1.752-2.486-5-2.771-6.828A1.016 1.016 0 0 1 39.177 5c1.823.281 5.076 1.015 6.828 2.767z" data-original="#4fba6f" class=""></path><path fill="#24ae5f" d="M50.009 2.779c-2.519 2.519-1.955 7.167-1.955 7.167s4.648.564 7.167-1.955C56.97 6.242 57.7 3 57.987 1.175A1.014 1.014 0 0 0 56.825.013C55 .3 51.758 1.03 50.009 2.779z" data-original="#24ae5f" class=""></path><path fill="#4fba6f" d="M46.005 28.767c2.523 2.523 1.958 7.179 1.958 7.179s-4.656.565-7.179-1.958c-1.752-1.752-2.486-5-2.771-6.828A1.016 1.016 0 0 1 39.177 26c1.823.281 5.076 1.015 6.828 2.767z" data-original="#4fba6f" class=""></path><path fill="#24ae5f" d="M50.009 23.779c-2.519 2.519-1.955 7.167-1.955 7.167s4.648.564 7.167-1.955c1.749-1.749 2.482-5 2.766-6.816a1.014 1.014 0 0 0-1.162-1.162c-1.825.287-5.067 1.017-6.816 2.766z" data-original="#24ae5f" class=""></path><path fill="#4c8056" d="M10 42a1 1 0 0 1-1-1V15a1 1 0 0 1 2 0v26a1 1 0 0 1-1 1zM29 42a1 1 0 0 1-1-1V20a1 1 0 0 1 2 0v21a1 1 0 0 1-1 1zM48 42a1 1 0 0 1-1-1V3a1 1 0 0 1 2 0v38a1 1 0 0 1-1 1z" data-original="#4c8056"></path><rect width="58" height="5" y="41" fill="#f29c1f" rx="2" data-original="#f29c1f"></rect></g></g></svg>
