<svg xmlns="http://www.w3.org/2000/svg" version="1.1" xmlns:xlink="http://www.w3.org/1999/xlink" xmlns:svgjs="http://svgjs.com/svgjs" width="512" height="512" x="0" y="0" viewBox="0 0 198.211 198.211" style="enable-background:new 0 0 512 512" xml:space="preserve" class=""><g><path d="M165.057 172.624H16.172s-12.069-6.295-11.29-8.241 12.458 3.894 12.458 3.894-1.946-4.672 0-5.062c1.947-.39 6.619 4.672 9.344 5.062 2.725.389 2.725-2.336 6.619-1.558l7.787 1.558c5.451-2.726 17.52.778 18.688.778 1.168 0 42.047.39 56.842 1.168 0 0-6.23-3.114-3.894-4.282 2.336-1.168 13.627 3.114 13.627 3.114s1.168-1.946 3.894-1.946 8.954 2.336 8.954 2.336.39-1.947 2.726-1.558c2.336.39 21.732.13 23.13 4.737z" style="" fill="#d8ae58" data-original="#d8ae58"></path><path d="m123.281 37.292-15.81-11.706v7.203l9.343 7.592zM149.412 110.149V74.746c0-.329.267-.597.597-.597h2.523c.33 0 .598.267.598.597v35.403c0 .33-.268.597-.598.597h-2.523a.597.597 0 0 1-.597-.597zM129.686 110.149V74.746c0-.329.268-.597.597-.597h2.524c.329 0 .597.267.597.597v35.403c0 .33-.268.597-.597.597h-2.524a.597.597 0 0 1-.597-.597zM135.267 110.279V70.593c0-.33.267-.597.597-.597h2.523c.33 0 .598.267.598.597v39.686c0 .33-.268.597-.598.597h-2.523a.597.597 0 0 1-.597-.597z" style="" fill="#5b3514" data-original="#5b3514" class=""></path><path d="M151.972 81.458h-15.028a.597.597 0 0 1-.597-.597v-2.524c0-.329.267-.597.597-.597h15.028c.33 0 .597.268.597.597v2.524a.597.597 0 0 1-.597.597zM116.449 37.292h6.832v51.911h-6.832z" style="" fill="#5b3514" data-original="#5b3514" class=""></path><path d="M175 138.479V87.295c0-8.046-55.719-6.336-55.719-6.336V43.171c0-9.863-64.271-9.344-64.271-3.115v98.422H175z" style="" fill="#febd33" data-original="#febd33"></path><path d="M88.598 138.479h72.969c.539-13.035-.303-48.561-.303-50.664 0-3.894-42.178-4.153-42.178.26v29.849h-12.329l-18.159 20.555zM115.298 72.696h-47.19a1.906 1.906 0 0 1-1.906-1.906V45.986c0-1.053.854-1.906 1.906-1.906h47.19c1.053 0 1.906.854 1.906 1.906V70.79a1.906 1.906 0 0 1-1.906 1.906z" style="" fill="#faa334" data-original="#faa334"></path><circle cx="64.55" cy="124.152" r="43.193" style="" fill="#6e4320" data-original="#6e4320" class=""></circle><path d="M75.937 172.624H53.164a2.926 2.926 0 0 1-2.917-2.917v-91.11a2.925 2.925 0 0 1 2.917-2.916h22.773a2.924 2.924 0 0 1 2.916 2.916v91.11a2.924 2.924 0 0 1-2.916 2.917z" style="" fill="#6e4320" data-original="#6e4320" class=""></path><path d="m38.327 166.479-16.103-16.104a2.926 2.926 0 0 1 0-4.125l64.425-64.425a2.925 2.925 0 0 1 4.124 0l16.104 16.104a2.926 2.926 0 0 1 0 4.125l-64.425 64.425a2.926 2.926 0 0 1-4.125 0z" style="" fill="#6e4320" data-original="#6e4320" class=""></path><path d="M16.079 135.539v-22.773a2.926 2.926 0 0 1 2.917-2.917h91.11a2.926 2.926 0 0 1 2.917 2.917v22.773a2.926 2.926 0 0 1-2.917 2.917h-91.11a2.925 2.925 0 0 1-2.917-2.917z" style="" fill="#6e4320" data-original="#6e4320" class=""></path><path d="m22.224 97.929 16.103-16.104a2.925 2.925 0 0 1 4.124 0l64.425 64.425a2.926 2.926 0 0 1 0 4.125l-16.104 16.104a2.925 2.925 0 0 1-4.124 0l-64.425-64.425a2.927 2.927 0 0 1 .001-4.125z" style="" fill="#6e4320" data-original="#6e4320" class=""></path><circle cx="64.55" cy="124.152" r="39.793" style="" fill="#5b3514" data-original="#5b3514" class=""></circle><circle cx="64.551" cy="124.152" r="20.038" style="" fill="#febd33" data-original="#febd33"></circle><circle cx="64.55" cy="124.152" r="15.522" style="" fill="#6e4320" data-original="#6e4320" class=""></circle><circle cx="64.551" cy="124.152" r="9.54" style="" fill="#5b3514" data-original="#5b3514" class=""></circle><circle cx="64.55" cy="124.152" r="5.786" style="" fill="#febd33" data-original="#febd33"></circle><circle cx="164.065" cy="138.479" r="30.427" style="" fill="#6e4320" data-original="#6e4320" class=""></circle><path d="M171.225 172.624h-14.318a2.925 2.925 0 0 1-2.916-2.917v-62.458a2.925 2.925 0 0 1 2.916-2.916h14.318a2.926 2.926 0 0 1 2.917 2.916v62.458a2.925 2.925 0 0 1-2.917 2.917z" style="" fill="#6e4320" data-original="#6e4320" class=""></path><path d="m144.983 167.685-10.125-10.124a2.926 2.926 0 0 1 0-4.125l44.165-44.164a2.925 2.925 0 0 1 4.124 0l10.125 10.124a2.926 2.926 0 0 1 0 4.125l-44.164 44.164a2.924 2.924 0 0 1-4.125 0z" style="" fill="#6e4320" data-original="#6e4320" class=""></path><path d="M129.92 145.638V131.32a2.925 2.925 0 0 1 2.917-2.917h62.457a2.926 2.926 0 0 1 2.917 2.917v14.318a2.925 2.925 0 0 1-2.917 2.916h-62.457a2.925 2.925 0 0 1-2.917-2.916z" style="" fill="#6e4320" data-original="#6e4320" class=""></path><path d="m134.858 119.396 10.125-10.124a2.926 2.926 0 0 1 4.125 0l44.164 44.164a2.926 2.926 0 0 1 0 4.125l-10.125 10.124a2.923 2.923 0 0 1-4.124 0l-44.165-44.164a2.928 2.928 0 0 1 0-4.125z" style="" fill="#6e4320" data-original="#6e4320" class=""></path><circle cx="164.065" cy="138.479" r="28.032" style="" fill="#5b3514" data-original="#5b3514" class=""></circle><circle cx="164.065" cy="138.479" r="14.115" style="" fill="#febd33" data-original="#febd33"></circle><circle cx="164.065" cy="138.479" r="10.935" style="" fill="#6e4320" data-original="#6e4320" class=""></circle><circle cx="164.066" cy="138.479" r="6.72" style="" fill="#5b3514" data-original="#5b3514" class=""></circle><circle cx="164.066" cy="138.479" r="4.076" style="" fill="#febd33" data-original="#febd33"></circle><path d="M96.277 47.194H75.059a5.938 5.938 0 0 0-5.938 5.938v11.485a5.938 5.938 0 0 0 5.938 5.937h21.218a5.938 5.938 0 0 0 5.938-5.937V53.132a5.938 5.938 0 0 0-5.938-5.938zM111.545 47.194h-3.278a3.101 3.101 0 0 0-3.102 3.101v17.158a3.101 3.101 0 0 0 3.102 3.101h3.278a3.101 3.101 0 0 0 3.102-3.101V50.295a3.103 3.103 0 0 0-3.102-3.101z" style="" fill="#c1e8fb" data-original="#c1e8fb"></path><path d="m76.248 47.194-7.126 7.466v3.317l9.784-10.783zM80.957 47.194 69.122 60.467v4.15c0 .121.029.233.036.352l15.824-17.775h-4.025zM108.821 47.194l-3.656 3.831v3.128l6.314-6.959zM114.646 50.295c0-1.132-.638-2.08-1.544-2.621l-7.938 8.901v4.537l9.481-10.65v-.167z" style="" fill="#ffffff" data-original="#ffffff"></path><path d="M157.033 92.49h-35.404a.598.598 0 0 1-.597-.598v-2.523c0-.33.267-.597.597-.597h35.404c.329 0 .597.267.597.597v2.523c0 .33-.268.598-.597.598zM157.033 98.862h-35.404a.597.597 0 0 1-.597-.597v-2.523c0-.33.267-.597.597-.597h35.404c.329 0 .597.267.597.597v2.523c0 .33-.268.597-.597.597zM157.033 105.189h-35.404a.598.598 0 0 1-.597-.597v-2.524c0-.329.267-.597.597-.597h35.404c.329 0 .597.268.597.597v2.524a.598.598 0 0 1-.597.597z" style="" fill="#5b3514" data-original="#5b3514" class=""></path><circle cx="109.093" cy="86.906" r="4.023" style="" fill="#faa334" data-original="#faa334"></circle><circle cx="109.093" cy="86.906" r="2.466" style="" fill="#5b3514" data-original="#5b3514" class=""></circle><path d="M13.058 162.047s-16.352-3.698-12.459-9.539c3.894-5.84 12.459 9.539 12.459 9.539zM25.322 163.41s-10.706-3.114-8.371-6.618c2.336-3.504 8.371 6.618 8.371 6.618zM135.309 165.551c-.584.194-5.451-10.901-9.345-7.008-3.893 3.894 9.345 7.008 9.345 7.008zM123.044 163.994s-9.733-10.512-12.848-7.008c-3.114 3.504 12.848 7.008 12.848 7.008zM109.028 167.303s-5.451-7.592-7.592-5.256c-2.141 2.336 7.592 5.256 7.592 5.256z" style="" fill="#d8ae58" data-original="#d8ae58"></path></g></svg>
