<svg xmlns="http://www.w3.org/2000/svg" version="1.1" xmlns:xlink="http://www.w3.org/1999/xlink" xmlns:svgjs="http://svgjs.com/svgjs" width="512" height="512" x="0" y="0" viewBox="0 0 64 64" style="enable-background:new 0 0 512 512" xml:space="preserve" class=""><g><path fill="#e8f3f8" d="M43 21a8.12 8.12 0 0 0-2.66.46A10 10 0 0 0 21 25v.36a5.88 5.88 0 0 0-2-.36 6 6 0 0 0 0 12h24a8 8 0 0 0 0-16z" data-original="#e8f3f8"></path><path fill="#333333" d="M43 38H19a7 7 0 0 1 0-14 7.28 7.28 0 0 1 1 .08 11 11 0 0 1 20.87-3.83A8.72 8.72 0 0 1 43 20a9 9 0 0 1 0 18zM19 26a5 5 0 0 0 0 10h24a7 7 0 0 0 0-14 7.16 7.16 0 0 0-2.32.4l-.93.33-.34-.91A9 9 0 0 0 22 25l.07 1.79-1.39-.49A4.88 4.88 0 0 0 19 26z" data-original="#333333"></path><path fill="#f4f9fc" d="M16 33a5 5 0 0 1 5-5 4.88 4.88 0 0 1 1.68.3l1.39.49-.07-1.47V27a9 9 0 0 1 14.25-7.27A9 9 0 0 0 22 25v.32l.05 1.47-1.39-.49A4.88 4.88 0 0 0 19 26a5 5 0 0 0-2.37 9.37A4.9 4.9 0 0 1 16 33z" data-original="#f4f9fc"></path><path fill="#c1cacf" d="M46.84 23.16A6.92 6.92 0 0 1 48 27a7 7 0 0 1-7 7H17a4.9 4.9 0 0 1-2.37-.63A5 5 0 0 0 19 36h24a7 7 0 0 0 3.84-12.84z" data-original="#c1cacf"></path><g fill="#046d8b"><path d="M21 50a1 1 0 0 1-1-1v-8a1 1 0 0 1 2 0v8a1 1 0 0 1-1 1z" fill="#046d8b" data-original="#046d8b" class=""></path><path d="M25 46h-8a1 1 0 0 1 0-2h8a1 1 0 0 1 0 2z" fill="#046d8b" data-original="#046d8b" class=""></path><path d="M23.83 48.83a1 1 0 0 1-.71-.29l-5.66-5.66a1 1 0 0 1 1.42-1.42l5.66 5.66a1 1 0 0 1 0 1.42 1 1 0 0 1-.71.29z" fill="#046d8b" data-original="#046d8b" class=""></path><path d="M18.17 48.83a1 1 0 0 1-.71-.29 1 1 0 0 1 0-1.42l5.66-5.66a1 1 0 0 1 1.42 1.42l-5.66 5.66a1 1 0 0 1-.71.29zM32 50a1 1 0 0 1-1-1v-8a1 1 0 0 1 2 0v8a1 1 0 0 1-1 1z" fill="#046d8b" data-original="#046d8b" class=""></path><path d="M36 46h-8a1 1 0 0 1 0-2h8a1 1 0 0 1 0 2z" fill="#046d8b" data-original="#046d8b" class=""></path><path d="M34.83 48.83a1 1 0 0 1-.71-.29l-5.66-5.66a1 1 0 0 1 1.42-1.42l5.66 5.66a1 1 0 0 1 0 1.42 1 1 0 0 1-.71.29z" fill="#046d8b" data-original="#046d8b" class=""></path><path d="M29.17 48.83a1 1 0 0 1-.71-.29 1 1 0 0 1 0-1.42l5.66-5.66a1 1 0 0 1 1.42 1.42l-5.66 5.66a1 1 0 0 1-.71.29zM43 50a1 1 0 0 1-1-1v-8a1 1 0 0 1 2 0v8a1 1 0 0 1-1 1z" fill="#046d8b" data-original="#046d8b" class=""></path><path d="M47 46h-8a1 1 0 0 1 0-2h8a1 1 0 0 1 0 2z" fill="#046d8b" data-original="#046d8b" class=""></path><path d="M45.83 48.83a1 1 0 0 1-.71-.29l-5.66-5.66a1 1 0 0 1 1.42-1.42l5.66 5.66a1 1 0 0 1 0 1.42 1 1 0 0 1-.71.29z" fill="#046d8b" data-original="#046d8b" class=""></path><path d="M40.17 48.83a1 1 0 0 1-.71-.29 1 1 0 0 1 0-1.42l5.66-5.66a1 1 0 0 1 1.42 1.42l-5.66 5.66a1 1 0 0 1-.71.29z" fill="#046d8b" data-original="#046d8b" class=""></path></g></g></svg>