<svg xmlns="http://www.w3.org/2000/svg" version="1.1" xmlns:xlink="http://www.w3.org/1999/xlink" xmlns:svgjs="http://svgjs.com/svgjs" width="512" height="512" x="0" y="0" viewBox="0 0 64 64" style="enable-background:new 0 0 512 512" xml:space="preserve" class=""><g><circle cx="32" cy="32" r="11" fill="#ecbe13" data-original="#ecbe13"></circle><path fill="#333333" d="M32 44a12 12 0 1 1 12-12 12 12 0 0 1-12 12zm0-22a10 10 0 1 0 10 10 10 10 0 0 0-10-10z" data-original="#333333" class=""></path><rect width="4" height="8" x="30" y="8" fill="#ecbe13" rx="2" data-original="#ecbe13"></rect><path fill="#333333" d="M32 17a3 3 0 0 1-3-3v-4a3 3 0 0 1 6 0v4a3 3 0 0 1-3 3zm0-8a1 1 0 0 0-1 1v4a1 1 0 0 0 2 0v-4a1 1 0 0 0-1-1z" data-original="#333333" class=""></path><rect width="4" height="8" x="30" y="48" fill="#ecbe13" rx="2" data-original="#ecbe13"></rect><path fill="#333333" d="M32 57a3 3 0 0 1-3-3v-4a3 3 0 0 1 6 0v4a3 3 0 0 1-3 3zm0-8a1 1 0 0 0-1 1v4a1 1 0 0 0 2 0v-4a1 1 0 0 0-1-1z" data-original="#333333" class=""></path><rect width="4" height="8" x="50" y="28" fill="#ecbe13" rx="2" transform="rotate(90 52 32)" data-original="#ecbe13"></rect><path fill="#333333" d="M54 35h-4a3 3 0 0 1 0-6h4a3 3 0 0 1 0 6zm-4-4a1 1 0 0 0 0 2h4a1 1 0 0 0 0-2z" data-original="#333333" class=""></path><rect width="4" height="8" x="10" y="28" fill="#ecbe13" rx="2" transform="rotate(90 12 32)" data-original="#ecbe13"></rect><path fill="#333333" d="M14 35h-4a3 3 0 0 1 0-6h4a3 3 0 0 1 0 6zm-4-4a1 1 0 0 0 0 2h4a1 1 0 0 0 0-2z" data-original="#333333" class=""></path><rect width="4" height="8" x="44.14" y="42.14" fill="#ecbe13" rx="2" transform="rotate(135 46.149 46.144)" data-original="#ecbe13"></rect><path fill="#333333" d="M47.56 50.55a3 3 0 0 1-2.12-.87l-2.83-2.83a3 3 0 0 1 0-4.24 3 3 0 0 1 4.24 0l2.83 2.83a3 3 0 0 1-2.12 5.11zM44 44a1 1 0 0 0 0 1.42l2.83 2.82a1 1 0 0 0 1.41-1.41L45.44 44A1 1 0 0 0 44 44z" data-original="#333333" class=""></path><rect width="4" height="8" x="15.86" y="13.86" fill="#ecbe13" rx="2" transform="rotate(135 17.858 17.86)" data-original="#ecbe13"></rect><path fill="#333333" d="M19.27 22.27a3 3 0 0 1-2.12-.88l-2.83-2.83a3 3 0 0 1 0-4.24 3 3 0 0 1 4.24 0l2.83 2.83a3 3 0 0 1 0 4.24 3 3 0 0 1-2.12.88zm-3.53-6.53a1 1 0 0 0 0 1.41L18.56 20A1 1 0 0 0 20 18.56l-2.83-2.82a1 1 0 0 0-1.43 0z" data-original="#333333" class=""></path><rect width="4" height="8" x="15.86" y="42.14" fill="#ecbe13" rx="2" transform="rotate(-135 17.86 46.147)" data-original="#ecbe13"></rect><path fill="#333333" d="M16.44 50.55a3 3 0 0 1-2.12-5.11l2.83-2.83a3 3 0 0 1 4.24 0 3 3 0 0 1 0 4.24l-2.83 2.83a3 3 0 0 1-2.12.87zm2.83-6.82a1 1 0 0 0-.71.29l-2.82 2.83a1 1 0 0 0 1.41 1.41L20 45.44A1 1 0 0 0 20 44a1 1 0 0 0-.73-.27z" data-original="#333333" class=""></path><rect width="4" height="8" x="44.14" y="13.86" fill="#ecbe13" rx="2" transform="rotate(-135 46.143 17.86)" data-original="#ecbe13"></rect><path fill="#333333" d="M44.73 22.27a3 3 0 0 1-2.12-.88 3 3 0 0 1 0-4.24l2.83-2.83a3 3 0 0 1 4.24 0 3 3 0 0 1 0 4.24l-2.83 2.83a3 3 0 0 1-2.12.88zm2.83-6.83a1 1 0 0 0-.71.3L44 18.56A1 1 0 0 0 45.44 20l2.82-2.83a1 1 0 0 0 0-1.41 1 1 0 0 0-.7-.32z" data-original="#333333" class=""></path></g></svg>