<svg xmlns="http://www.w3.org/2000/svg" version="1.1" xmlns:xlink="http://www.w3.org/1999/xlink" xmlns:svgjs="http://svgjs.com/svgjs" width="512" height="512" x="0" y="0" viewBox="0 0 64 64" style="enable-background:new 0 0 512 512" xml:space="preserve" class=""><g><g fill="#046d8b"><path d="M19 49h-1.08a1 1 0 0 1 0-2H19a1 1 0 0 1 0 2zM45 45H18a1 1 0 0 1 0-2h27a3 3 0 1 0-2.94-3.61 1 1 0 1 1-2-.4A5 5 0 1 1 45 45zM39 57a5 5 0 0 1-4.9-4 1 1 0 1 1 2-.4A3 3 0 1 0 39 49H22a1 1 0 0 1 0-2h17a5 5 0 0 1 0 10z" fill="#046d8b" data-original="#046d8b"></path><path d="M52 53a5 5 0 0 1-4.9-4 1 1 0 1 1 2-.4A3 3 0 1 0 52 45H20a1 1 0 0 1 0-2h32a5 5 0 0 1 0 10z" fill="#046d8b" data-original="#046d8b"></path></g><circle cx="26" cy="24" r="8" fill="#ecbe13" data-original="#ecbe13"></circle><path fill="#333333" d="M26 33a9 9 0 1 1 9-9 9 9 0 0 1-9 9zm0-16a7 7 0 1 0 7 7 7 7 0 0 0-7-7z" data-original="#333333"></path><rect width="4" height="6" x="24" y="7" fill="#ecbe13" rx="2" data-original="#ecbe13"></rect><path fill="#333333" d="M26 14a3 3 0 0 1-3-3V9a3 3 0 0 1 6 0v2a3 3 0 0 1-3 3zm0-6a1 1 0 0 0-1 1v2a1 1 0 0 0 2 0V9a1 1 0 0 0-1-1z" data-original="#333333"></path><rect width="4" height="6" x="24" y="35" fill="#ecbe13" rx="2" data-original="#ecbe13"></rect><path fill="#333333" d="M26 42a3 3 0 0 1-3-3v-2a3 3 0 0 1 6 0v2a3 3 0 0 1-3 3zm0-6a1 1 0 0 0-1 1v2a1 1 0 0 0 2 0v-2a1 1 0 0 0-1-1z" data-original="#333333"></path><rect width="4" height="6" x="38" y="21" fill="#ecbe13" rx="2" transform="rotate(90 40 24)" data-original="#ecbe13"></rect><path fill="#333333" d="M41 27h-2a3 3 0 0 1 0-6h2a3 3 0 0 1 0 6zm-2-4a1 1 0 0 0 0 2h2a1 1 0 0 0 0-2z" data-original="#333333"></path><rect width="4" height="6" x="10" y="21" fill="#ecbe13" rx="2" transform="rotate(90 12 24)" data-original="#ecbe13"></rect><path fill="#333333" d="M13 27h-2a3 3 0 0 1 0-6h2a3 3 0 0 1 0 6zm-2-4a1 1 0 0 0 0 2h2a1 1 0 0 0 0-2z" data-original="#333333"></path><rect width="4" height="6" x="33.9" y="30.9" fill="#ecbe13" rx="2" transform="rotate(135 35.9 33.902)" data-original="#ecbe13"></rect><path fill="#333333" d="M36.61 37.6a3 3 0 0 1-2.12-.87l-1.42-1.42a3 3 0 0 1 0-4.24 3.08 3.08 0 0 1 4.24 0l1.42 1.42a3 3 0 0 1-2.12 5.11zm-1.42-5.41a1 1 0 0 0-.7.3 1 1 0 0 0 0 1.41l1.41 1.41a1 1 0 0 0 1.41 0 1 1 0 0 0 .3-.7 1 1 0 0 0-.3-.71l-1.41-1.41a1 1 0 0 0-.71-.3z" data-original="#333333"></path><rect width="4" height="6" x="14.1" y="11.1" fill="#ecbe13" rx="2" transform="rotate(135 16.103 14.104)" data-original="#ecbe13"></rect><path fill="#333333" d="M16.81 17.81a3 3 0 0 1-2.12-.88l-1.42-1.42a3 3 0 0 1 0-4.24 3 3 0 0 1 4.24 0l1.42 1.42a3 3 0 0 1-2.12 5.12zm-1.42-5.42a1 1 0 0 0-.7.3 1 1 0 0 0 0 1.41l1.41 1.41a1 1 0 0 0 1.41 0 1 1 0 0 0 0-1.41l-1.41-1.41a1 1 0 0 0-.71-.3z" data-original="#333333"></path><rect width="4" height="6" x="14.1" y="30.9" fill="#ecbe13" rx="2" transform="rotate(-135 16.097 33.901)" data-original="#ecbe13"></rect><path fill="#333333" d="M15.39 37.6a3 3 0 0 1-2.12-5.11l1.42-1.42a3.08 3.08 0 0 1 4.24 0 3 3 0 0 1 0 4.24l-1.42 1.42a3 3 0 0 1-2.12.87zm1.42-5.41a1 1 0 0 0-.71.3l-1.41 1.41a1 1 0 0 0-.3.71 1 1 0 0 0 .3.7 1 1 0 0 0 1.41 0l1.41-1.41a1 1 0 0 0 0-1.41 1 1 0 0 0-.7-.3z" data-original="#333333"></path><rect width="4" height="6" x="33.9" y="11.1" fill="#ecbe13" rx="2" transform="rotate(-135 35.9 14.106)" data-original="#ecbe13"></rect><path fill="#333333" d="M35.19 17.81a3 3 0 0 1-2.12-5.12l1.42-1.42a3 3 0 0 1 4.24 0 3 3 0 0 1 0 4.24l-1.42 1.42a3 3 0 0 1-2.12.88zm1.42-5.42a1 1 0 0 0-.71.3l-1.41 1.41a1 1 0 0 0 0 1.41 1 1 0 0 0 1.41 0l1.41-1.41a1 1 0 0 0 0-1.41 1 1 0 0 0-.7-.3z" data-original="#333333"></path></g></svg>