<svg xmlns="http://www.w3.org/2000/svg" version="1.1" xmlns:xlink="http://www.w3.org/1999/xlink" xmlns:svgjs="http://svgjs.com/svgjs" width="512" height="512" x="0" y="0" viewBox="0 0 64 64" style="enable-background:new 0 0 512 512" xml:space="preserve" class=""><g><g fill="#046d8b"><path d="M32 53a1 1 0 0 1-1-1V12a1 1 0 0 1 2 0v40a1 1 0 0 1-1 1z" fill="#046d8b" data-original="#046d8b"></path><path d="M32 17a1 1 0 0 1-.71-.29 1 1 0 0 1 0-1.42l4-4a1 1 0 0 1 1.42 1.42l-4 4A1 1 0 0 1 32 17z" fill="#046d8b" data-original="#046d8b"></path><path d="M32 17a1 1 0 0 1-.71-.29l-4-4a1 1 0 0 1 1.42-1.42l4 4a1 1 0 0 1 0 1.42A1 1 0 0 1 32 17zM32 23a1 1 0 0 1-.71-.29 1 1 0 0 1 0-1.42l4-4a1 1 0 0 1 1.42 1.42l-4 4A1 1 0 0 1 32 23z" fill="#046d8b" data-original="#046d8b"></path><path d="M32 23a1 1 0 0 1-.71-.29l-4-4a1 1 0 0 1 1.42-1.42l4 4a1 1 0 0 1 0 1.42A1 1 0 0 1 32 23zM36 53a1 1 0 0 1-.71-.29l-4-4a1 1 0 0 1 1.42-1.42l4 4a1 1 0 0 1 0 1.42A1 1 0 0 1 36 53z" fill="#046d8b" data-original="#046d8b"></path><path d="M28 53a1 1 0 0 1-.71-.29 1 1 0 0 1 0-1.42l4-4a1 1 0 0 1 1.42 1.42l-4 4A1 1 0 0 1 28 53zM36 47a1 1 0 0 1-.71-.29l-4-4a1 1 0 0 1 1.42-1.42l4 4a1 1 0 0 1 0 1.42A1 1 0 0 1 36 47z" fill="#046d8b" data-original="#046d8b"></path><path d="M28 47a1 1 0 0 1-.71-.29 1 1 0 0 1 0-1.42l4-4a1 1 0 0 1 1.42 1.42l-4 4A1 1 0 0 1 28 47zM52 33H12a1 1 0 0 1 0-2h40a1 1 0 0 1 0 2z" fill="#046d8b" data-original="#046d8b"></path><path d="M52 37a1 1 0 0 1-.71-.29l-4-4a1 1 0 0 1 1.42-1.42l4 4a1 1 0 0 1 0 1.42A1 1 0 0 1 52 37z" fill="#046d8b" data-original="#046d8b"></path><path d="M48 33a1 1 0 0 1-.71-.29 1 1 0 0 1 0-1.42l4-4a1 1 0 0 1 1.42 1.42l-4 4A1 1 0 0 1 48 33zM46 37a1 1 0 0 1-.71-.29l-4-4a1 1 0 0 1 1.42-1.42l4 4a1 1 0 0 1 0 1.42A1 1 0 0 1 46 37z" fill="#046d8b" data-original="#046d8b"></path><path d="M42 33a1 1 0 0 1-.71-.29 1 1 0 0 1 0-1.42l4-4a1 1 0 0 1 1.42 1.42l-4 4A1 1 0 0 1 42 33zM12 37a1 1 0 0 1-.71-.29 1 1 0 0 1 0-1.42l4-4a1 1 0 0 1 1.42 1.42l-4 4A1 1 0 0 1 12 37z" fill="#046d8b" data-original="#046d8b"></path><path d="M16 33a1 1 0 0 1-.71-.29l-4-4a1 1 0 0 1 1.42-1.42l4 4a1 1 0 0 1 0 1.42A1 1 0 0 1 16 33zM18 37a1 1 0 0 1-.71-.29 1 1 0 0 1 0-1.42l4-4a1 1 0 0 1 1.42 1.42l-4 4A1 1 0 0 1 18 37z" fill="#046d8b" data-original="#046d8b"></path><path d="M22 33a1 1 0 0 1-.71-.29l-4-4a1 1 0 0 1 1.42-1.42l4 4a1 1 0 0 1 0 1.42A1 1 0 0 1 22 33zM46.14 47.14a1 1 0 0 1-.7-.29L17.15 18.56a1 1 0 1 1 1.41-1.41l28.29 28.29a1 1 0 0 1 0 1.41 1 1 0 0 1-.71.29z" fill="#046d8b" data-original="#046d8b"></path><path d="M43.31 50a1 1 0 0 1-1-1v-5.69a1 1 0 0 1 2 0V49a1 1 0 0 1-1 1z" fill="#046d8b" data-original="#046d8b"></path><path d="M49 44.31h-5.69a1 1 0 0 1 0-2H49a1 1 0 0 1 0 2zM39.07 45.73a1 1 0 0 1-1-1v-5.66a1 1 0 0 1 2 0v5.66a1 1 0 0 1-1 1z" fill="#046d8b" data-original="#046d8b"></path><path d="M44.73 40.07h-5.66a1 1 0 0 1 0-2h5.66a1 1 0 0 1 0 2zM20.69 21.69H15a1 1 0 1 1 0-2h5.66a1 1 0 0 1 0 2z" fill="#046d8b" data-original="#046d8b"></path><path d="M20.69 21.69a1 1 0 0 1-1-1V15a1 1 0 1 1 2 0v5.66a1 1 0 0 1-1 1.03zM24.93 25.93h-5.66a1 1 0 0 1 0-2h5.66a1 1 0 0 1 0 2z" fill="#046d8b" data-original="#046d8b"></path><path d="M24.93 25.93a1 1 0 0 1-1-1v-5.66a1 1 0 0 1 2 0v5.66a1 1 0 0 1-1 1zM17.86 47.14a1 1 0 0 1-.71-.29 1 1 0 0 1 0-1.41l28.29-28.29a1 1 0 0 1 1.41 1.41L18.56 46.85a1 1 0 0 1-.7.29z" fill="#046d8b" data-original="#046d8b"></path><path d="M20.69 44.31H15a1 1 0 0 1 0-2h5.66a1 1 0 0 1 0 2z" fill="#046d8b" data-original="#046d8b"></path><path d="M20.69 50a1 1 0 0 1-1-1v-5.69a1 1 0 0 1 2 0V49a1 1 0 0 1-1 1zM24.93 40.07h-5.66a1 1 0 0 1 0-2h5.66a1 1 0 0 1 0 2z" fill="#046d8b" data-original="#046d8b"></path><path d="M24.93 45.73a1 1 0 0 1-1-1v-5.66a1 1 0 0 1 2 0v5.66a1 1 0 0 1-1 1zM43.31 21.69a1 1 0 0 1-1-1V15a1 1 0 0 1 2 0v5.66a1 1 0 0 1-1 1.03z" fill="#046d8b" data-original="#046d8b"></path><path d="M49 21.69h-5.69a1 1 0 0 1 0-2H49a1 1 0 0 1 0 2zM39.07 25.93a1 1 0 0 1-1-1v-5.66a1 1 0 0 1 2 0v5.66a1 1 0 0 1-1 1z" fill="#046d8b" data-original="#046d8b"></path><path d="M44.73 25.93h-5.66a1 1 0 0 1 0-2h5.66a1 1 0 0 1 0 2z" fill="#046d8b" data-original="#046d8b"></path></g></g></svg>