<svg xmlns="http://www.w3.org/2000/svg" version="1.1" xmlns:xlink="http://www.w3.org/1999/xlink" xmlns:svgjs="http://svgjs.com/svgjs" width="512" height="512" x="0" y="0" viewBox="0 0 64 64" style="enable-background:new 0 0 512 512" xml:space="preserve" class=""><g><path fill="#e8f3f8" d="M43 22a8.12 8.12 0 0 0-2.66.46A10 10 0 0 0 21 26v.36a5.88 5.88 0 0 0-2-.36 6 6 0 0 0 0 12h24a8 8 0 0 0 0-16z" data-original="#e8f3f8"></path><path fill="#333333" d="M43 39H19a7 7 0 0 1 0-14 7.28 7.28 0 0 1 1 .08 11 11 0 0 1 20.87-3.83A8.72 8.72 0 0 1 43 21a9 9 0 0 1 0 18zM19 27a5 5 0 0 0 0 10h24a7 7 0 0 0 0-14 7.16 7.16 0 0 0-2.32.4l-.93.33-.34-.91A9 9 0 0 0 22 26l.07 1.79-1.39-.49A4.92 4.92 0 0 0 19 27z" data-original="#333333"></path><path fill="#f4f9fc" d="M16 34a5 5 0 0 1 5-5 4.92 4.92 0 0 1 1.68.3l1.39.49-.07-1.47V28a9 9 0 0 1 14.25-7.27A9 9 0 0 0 22 26v.32l.05 1.47-1.39-.49A4.92 4.92 0 0 0 19 27a5 5 0 0 0-2.37 9.37A4.9 4.9 0 0 1 16 34z" data-original="#f4f9fc"></path><path fill="#c1cacf" d="M46.84 24.16A6.92 6.92 0 0 1 48 28a7 7 0 0 1-7 7H17a4.9 4.9 0 0 1-2.37-.63A5 5 0 0 0 19 37h24a7 7 0 0 0 3.84-12.84z" data-original="#c1cacf"></path><g fill="#333"><path d="M45 43H19a1 1 0 0 1 0-2h26a1 1 0 0 1 0 2zM50 46H15a1 1 0 0 1 0-2h35a1 1 0 0 1 0 2zM45 49H19a1 1 0 0 1 0-2h26a1 1 0 0 1 0 2z" fill="#333333" data-original="#333333"></path></g></g></svg>