<svg xmlns="http://www.w3.org/2000/svg" version="1.1" xmlns:xlink="http://www.w3.org/1999/xlink" xmlns:svgjs="http://svgjs.com/svgjs" width="512" height="512" x="0" y="0" viewBox="0 0 64 64" style="enable-background:new 0 0 512 512" xml:space="preserve" class=""><g><g fill="#046d8b"><path d="M22 37a1 1 0 0 1-1-1V14a1 1 0 0 1 2 0v22a1 1 0 0 1-1 1z" fill="#046d8b" data-original="#046d8b"></path><path d="M22 18a1 1 0 0 1-.71-.29 1 1 0 0 1 0-1.42l3-3a1 1 0 0 1 1.42 1.42l-3 3A1 1 0 0 1 22 18z" fill="#046d8b" data-original="#046d8b"></path><path d="M22 18a1 1 0 0 1-.71-.29l-3-3a1 1 0 0 1 1.42-1.42l3 3a1 1 0 0 1 0 1.42A1 1 0 0 1 22 18zM25 37a1 1 0 0 1-.71-.29l-3-3a1 1 0 0 1 1.42-1.42l3 3a1 1 0 0 1 0 1.42A1 1 0 0 1 25 37z" fill="#046d8b" data-original="#046d8b"></path><path d="M19 37a1 1 0 0 1-.71-.29 1 1 0 0 1 0-1.42l3-3a1 1 0 0 1 1.42 1.42l-3 3A1 1 0 0 1 19 37zM33 26H11a1 1 0 0 1 0-2h22a1 1 0 0 1 0 2z" fill="#046d8b" data-original="#046d8b"></path><path d="M33 29a1 1 0 0 1-.71-.29l-3-3a1 1 0 0 1 1.42-1.42l3 3a1 1 0 0 1 0 1.42A1 1 0 0 1 33 29z" fill="#046d8b" data-original="#046d8b"></path><path d="M30 26a1 1 0 0 1-.71-.29 1 1 0 0 1 0-1.42l3-3a1 1 0 0 1 1.42 1.42l-3 3A1 1 0 0 1 30 26zM11 29a1 1 0 0 1-.71-.29 1 1 0 0 1 0-1.42l3-3a1 1 0 0 1 1.42 1.42l-3 3A1 1 0 0 1 11 29z" fill="#046d8b" data-original="#046d8b"></path><path d="M14 26a1 1 0 0 1-.71-.29l-3-3a1 1 0 0 1 1.42-1.42l3 3a1 1 0 0 1 0 1.42A1 1 0 0 1 14 26zM29.78 33.78a1 1 0 0 1-.71-.29L13.51 17.93a1 1 0 1 1 1.42-1.42l15.56 15.56a1 1 0 0 1 0 1.42 1 1 0 0 1-.71.29z" fill="#046d8b" data-original="#046d8b"></path><path d="M27.66 35.9a1 1 0 0 1-1-1v-4.24a1 1 0 0 1 2 0v4.24a1 1 0 0 1-1 1z" fill="#046d8b" data-original="#046d8b"></path><path d="M31.9 31.66h-4.24a1 1 0 0 1 0-2h4.24a1 1 0 0 1 0 2zM16.34 20.34H12.1a1 1 0 1 1 0-2h4.24a1 1 0 0 1 0 2z" fill="#046d8b" data-original="#046d8b"></path><path d="M16.34 20.34a1 1 0 0 1-1-1V15.1a1 1 0 1 1 2 0v4.24a1 1 0 0 1-1 1zM14.22 33.78a1 1 0 0 1-.71-.29 1 1 0 0 1 0-1.42l15.56-15.56a1 1 0 1 1 1.42 1.42L14.93 33.49a1 1 0 0 1-.71.29z" fill="#046d8b" data-original="#046d8b"></path><path d="M16.34 31.66H12.1a1 1 0 1 1 0-2h4.24a1 1 0 0 1 0 2z" fill="#046d8b" data-original="#046d8b"></path><path d="M16.34 35.9a1 1 0 0 1-1-1v-4.24a1 1 0 0 1 2 0v4.24a1 1 0 0 1-1 1zM27.66 20.34a1 1 0 0 1-1-1V15.1a1 1 0 1 1 2 0v4.24a1 1 0 0 1-1 1z" fill="#046d8b" data-original="#046d8b"></path><path d="M31.9 20.34h-4.24a1 1 0 0 1 0-2h4.24a1 1 0 0 1 0 2z" fill="#046d8b" data-original="#046d8b"></path></g><path fill="#333333" d="M42 55a11 11 0 0 1-6-20.21V16a6 6 0 0 1 12 0v18.79A11 11 0 0 1 42 55zm0-43a4 4 0 0 0-4 4v19.92l-.5.29a9 9 0 1 0 9 0l-.5-.29V16a4 4 0 0 0-4-4z" data-original="#333333" class=""></path><path fill="#29abe2" d="m45.5 37.94-1.5-.86V36a2 2 0 0 0-2-2 2 2 0 0 0-2 2v1.08l-1.5.86a7 7 0 1 0 7 0z" data-original="#29abe2"></path><path fill="#333333" d="M42 52a8.39 8.39 0 0 1-1-.06 8 8 0 0 1-3-14.86l1-.58V36a3 3 0 0 1 6 0v.5l1 .58A8 8 0 0 1 42 52zm0-17a1 1 0 0 0-1 1v1.65l-2 1.16a6 6 0 1 0 6 0l-2-1.16V36a1 1 0 0 0-1-1z" data-original="#333333" class=""></path><path fill="#228ebc" d="M45.11 38.89A6 6 0 0 1 40 48a6.78 6.78 0 0 1-.77 0 5.91 5.91 0 0 1-2.35-.83A6 6 0 0 0 41.23 50a6.78 6.78 0 0 0 .77 0 6 6 0 0 0 6-6 6 6 0 0 0-2.89-5.11z" data-original="#228ebc"></path></g></svg>