<svg xmlns="http://www.w3.org/2000/svg" version="1.1" xmlns:xlink="http://www.w3.org/1999/xlink" xmlns:svgjs="http://svgjs.com/svgjs" width="512" height="512" x="0" y="0" viewBox="0 0 64 64" style="enable-background:new 0 0 512 512" xml:space="preserve" class=""><g><path fill="#c2cbce" d="M49 25a8.12 8.12 0 0 0-2.66.46A10 10 0 0 0 27 29v.36a5.88 5.88 0 0 0-2-.36 6 6 0 0 0 0 12h24a8 8 0 0 0 0-16z" data-original="#c2cbce"></path><path fill="#333333" d="M49 42H25a7 7 0 0 1 0-14 7.28 7.28 0 0 1 1 .08 11 11 0 0 1 20.87-3.83A8.72 8.72 0 0 1 49 24a9 9 0 0 1 0 18zM25 30a5 5 0 0 0 0 10h24a7 7 0 0 0 0-14 7.16 7.16 0 0 0-2.32.4l-.93.33-.34-.91A9 9 0 0 0 28 29l.07 1.79-1.39-.49A4.92 4.92 0 0 0 25 30z" data-original="#333333"></path><path fill="#d9dfe1" d="M22 37a5 5 0 0 1 5-5 4.92 4.92 0 0 1 1.68.3l1.39.49-.07-1.47V31a9 9 0 0 1 14.25-7.27A9 9 0 0 0 28 29v.32l.05 1.47-1.39-.49A4.92 4.92 0 0 0 25 30a5 5 0 0 0-2.37 9.37A4.9 4.9 0 0 1 22 37z" data-original="#d9dfe1"></path><path fill="#a1a8ac" d="M52.84 27.16A6.92 6.92 0 0 1 54 31a7 7 0 0 1-7 7H23a4.9 4.9 0 0 1-2.37-.63A5 5 0 0 0 25 40h24a7 7 0 0 0 3.84-12.84z" data-original="#a1a8ac"></path><path fill="#e8f3f8" d="M38 29a8.12 8.12 0 0 0-2.66.46A10 10 0 0 0 16 33v.36a5.88 5.88 0 0 0-2-.36 6 6 0 0 0 0 12h24a8 8 0 0 0 0-16z" data-original="#e8f3f8"></path><path fill="#333333" d="M38 46H14a7 7 0 0 1 0-14 7.28 7.28 0 0 1 1 .08 11 11 0 0 1 20.87-3.83A8.72 8.72 0 0 1 38 28a9 9 0 0 1 0 18zM14 34a5 5 0 0 0 0 10h24a7 7 0 0 0 0-14 7.16 7.16 0 0 0-2.32.4l-.93.33-.34-.91A9 9 0 0 0 17 33l.07 1.79-1.39-.49A4.92 4.92 0 0 0 14 34z" data-original="#333333"></path><path fill="#f1f8fb" d="M11 41a5 5 0 0 1 5-5 4.92 4.92 0 0 1 1.68.3l1.39.49-.07-1.47V35a9 9 0 0 1 14.25-7.27A9 9 0 0 0 17 33v.32l.05 1.47-1.39-.49A4.92 4.92 0 0 0 14 34a5 5 0 0 0-2.37 9.37A4.9 4.9 0 0 1 11 41z" data-original="#f1f8fb"></path><path fill="#c1cacf" d="M41.84 31.16A6.92 6.92 0 0 1 43 35a7 7 0 0 1-7 7H12a4.9 4.9 0 0 1-2.37-.63A5 5 0 0 0 14 44h24a7 7 0 0 0 3.84-12.84z" data-original="#c1cacf"></path></g></svg>