<svg xmlns="http://www.w3.org/2000/svg" version="1.1" xmlns:xlink="http://www.w3.org/1999/xlink" xmlns:svgjs="http://svgjs.com/svgjs" width="512" height="512" x="0" y="0" viewBox="0 0 64 64" style="enable-background:new 0 0 512 512" xml:space="preserve" class=""><g><g fill="#046d8b"><path d="M20.27 45.87a1 1 0 0 1-.58-.19 1 1 0 0 1-.23-1.39L21.11 42a1 1 0 0 1 1.63 1.17l-1.66 2.3a1 1 0 0 1-.81.4zM31.17 45.59a1 1 0 0 1-.81-1.59L32 41.71a1 1 0 1 1 1.62 1.17L32 45.17a1 1 0 0 1-.83.42zM37.08 45.47a1 1 0 0 1-.59-.19 1 1 0 0 1-.22-1.39l1.65-2.3a1 1 0 0 1 1.4-.22 1 1 0 0 1 .22 1.39l-1.65 2.3a1 1 0 0 1-.81.41zM36 53.35a1 1 0 0 1-.59-.19 1 1 0 0 1-.22-1.39l1.65-2.3a1 1 0 0 1 1.4-.22 1 1 0 0 1 .22 1.39l-1.65 2.3a1 1 0 0 1-.81.41zM24.87 53.34a1 1 0 0 1-.58-.19 1 1 0 0 1-.23-1.4l1.65-2.29a1 1 0 0 1 1.63 1.17l-1.66 2.29a1 1 0 0 1-.81.42zM16.94 52.21a1 1 0 0 1-.58-.19 1 1 0 0 1-.23-1.4l1.66-2.29a1 1 0 0 1 1.39-.23 1 1 0 0 1 .23 1.4l-1.66 2.29a1 1 0 0 1-.81.42zM42.85 53.09a1 1 0 0 1-.58-.19 1 1 0 0 1-.27-1.4l1.66-2.29a1 1 0 0 1 1.43-.21 1 1 0 0 1 .23 1.4l-1.66 2.29a1 1 0 0 1-.81.4zM13 49a.94.94 0 0 1-.55-.17 1 1 0 0 1-.28-1.38l4-6a1 1 0 0 1 1.66 1.1l-4 6A1 1 0 0 1 13 49zM23 50a.94.94 0 0 1-.55-.17 1 1 0 0 1-.28-1.38l4-6a1 1 0 0 1 1.66 1.1l-4 6A1 1 0 0 1 23 50zM30 54a.94.94 0 0 1-.55-.17 1 1 0 0 1-.28-1.38l4-6a1 1 0 1 1 1.66 1.1l-4 6A1 1 0 0 1 30 54zM41 49a.94.94 0 0 1-.55-.17 1 1 0 0 1-.28-1.38l4-6a1 1 0 1 1 1.66 1.1l-4 6A1 1 0 0 1 41 49z" fill="#046d8b" data-original="#046d8b"></path></g><path fill="#c2cbce" d="M48 18a8.12 8.12 0 0 0-2.66.46A10 10 0 0 0 26 22v.36a5.88 5.88 0 0 0-2-.36 6 6 0 0 0 0 12h24a8 8 0 0 0 0-16z" data-original="#c2cbce"></path><path fill="#333333" d="M48 35H24a7 7 0 0 1 0-14 7.28 7.28 0 0 1 1 .08 11 11 0 0 1 20.87-3.83A8.72 8.72 0 0 1 48 17a9 9 0 0 1 0 18zM24 23a5 5 0 0 0 0 10h24a7 7 0 0 0 0-14 7.16 7.16 0 0 0-2.32.4l-.93.33-.34-.91A9 9 0 0 0 27 22l.07 1.79-1.39-.49A4.92 4.92 0 0 0 24 23z" data-original="#333333"></path><path fill="#d9dfe1" d="M21 30a5 5 0 0 1 5-5 4.92 4.92 0 0 1 1.68.3l1.39.49-.07-1.47V24a9 9 0 0 1 14.25-7.27A9 9 0 0 0 27 22v.32l.05 1.47-1.39-.49A4.92 4.92 0 0 0 24 23a5 5 0 0 0-2.37 9.37A4.9 4.9 0 0 1 21 30z" data-original="#d9dfe1"></path><path fill="#a1a8ac" d="M51.84 20.16A6.92 6.92 0 0 1 53 24a7 7 0 0 1-7 7H22a4.9 4.9 0 0 1-2.37-.63A5 5 0 0 0 24 33h24a7 7 0 0 0 3.84-12.84z" data-original="#a1a8ac"></path><path fill="#e8f3f8" d="M37 22a8.12 8.12 0 0 0-2.66.46A10 10 0 0 0 15 26v.36a5.88 5.88 0 0 0-2-.36 6 6 0 0 0 0 12h24a8 8 0 0 0 0-16z" data-original="#e8f3f8"></path><path fill="#333333" d="M37 39H13a7 7 0 0 1 0-14 7.28 7.28 0 0 1 1 .08 11 11 0 0 1 20.87-3.83A8.72 8.72 0 0 1 37 21a9 9 0 0 1 0 18zM13 27a5 5 0 0 0 0 10h24a7 7 0 0 0 0-14 7.16 7.16 0 0 0-2.32.4l-.93.33-.34-.91A9 9 0 0 0 16 26l.07 1.79-1.39-.49A4.92 4.92 0 0 0 13 27z" data-original="#333333"></path><path fill="#f4f9fc" d="M10 34a5 5 0 0 1 5-5 4.92 4.92 0 0 1 1.68.3l1.39.49-.07-1.47V28a9 9 0 0 1 14.25-7.27A9 9 0 0 0 16 26v.32l.05 1.47-1.39-.49A4.92 4.92 0 0 0 13 27a5 5 0 0 0-2.37 9.37A4.9 4.9 0 0 1 10 34z" data-original="#f4f9fc"></path><path fill="#c1cacf" d="M40.84 24.16A6.92 6.92 0 0 1 42 28a7 7 0 0 1-7 7H11a4.9 4.9 0 0 1-2.37-.63A5 5 0 0 0 13 37h24a7 7 0 0 0 3.84-12.84z" data-original="#c1cacf"></path></g></svg>