<svg xmlns="http://www.w3.org/2000/svg" version="1.1" xmlns:xlink="http://www.w3.org/1999/xlink" xmlns:svgjs="http://svgjs.com/svgjs" width="512" height="512" x="0" y="0" viewBox="0 0 64 64" style="enable-background:new 0 0 512 512" xml:space="preserve" class=""><g><g fill="#046d8b"><path d="M15 30h-1a1 1 0 0 1 0-2h1a1 1 0 0 1 0 2zM20 30h-2a1 1 0 1 1 0-2h2a1 1 0 1 1 0 2zM40 30H23a1 1 0 0 1 0-2h17a3 3 0 1 0-2.94-3.61 1 1 0 1 1-2-.4A5 5 0 1 1 40 30zM25 36h-1.08a1 1 0 0 1 0-2H25a1 1 0 0 1 0 2zM34 44a5 5 0 0 1-4.9-4 1 1 0 1 1 2-.4A3 3 0 1 0 34 36h-6a1 1 0 0 1 0-2h6a5 5 0 0 1 0 10z" fill="#046d8b" data-original="#046d8b"></path><path d="M45 41a5 5 0 0 1-4.9-4 1 1 0 1 1 2-.4A3 3 0 1 0 45 33H23.92a1 1 0 0 1 0-2H45a5 5 0 0 1 0 10zM21 33h-.94a1 1 0 0 1 0-2H21a1 1 0 0 1 0 2z" fill="#046d8b" data-original="#046d8b"></path></g></g></svg>