<svg xmlns="http://www.w3.org/2000/svg" version="1.1" xmlns:xlink="http://www.w3.org/1999/xlink" xmlns:svgjs="http://svgjs.com/svgjs" width="512" height="512" x="0" y="0" viewBox="0 0 64 64" style="enable-background:new 0 0 512 512" xml:space="preserve" class=""><g><g fill="#ecbe13"><path d="M28 14a1 1 0 0 1-1-1V9a1 1 0 0 1 2 0v4a1 1 0 0 1-1 1zM28 40a1 1 0 0 1-1-1v-4a1 1 0 0 1 2 0v4a1 1 0 0 1-1 1zM17 25h-4a1 1 0 0 1 0-2h4a1 1 0 0 1 0 2zM20.22 17.22a1 1 0 0 1-.71-.29l-2.82-2.83a1 1 0 0 1 1.41-1.41l2.83 2.82a1 1 0 0 1 0 1.42 1 1 0 0 1-.71.29zM17.39 35.61a1 1 0 0 1-.7-.3 1 1 0 0 1 0-1.41l2.82-2.83a1 1 0 0 1 1.42 1.42l-2.83 2.82a1 1 0 0 1-.71.3zM31 16.59a7.9 7.9 0 0 0-3-.59 8 8 0 0 0 0 16 7.9 7.9 0 0 0 3-.59z" fill="#ecbe13" data-original="#ecbe13"></path></g><path fill="#333333" d="M28 33a9 9 0 1 1 3.38-17.34l.62.25v16.18l-.62.25A9 9 0 0 1 28 33zm0-16a7 7 0 0 0 0 14 7.11 7.11 0 0 0 2-.29V17.29a7.11 7.11 0 0 0-2-.29z" data-original="#333333"></path><path fill="#333333" d="M40 56a11 11 0 0 1-6-20.21V17a6 6 0 0 1 12 0v18.79A11 11 0 0 1 40 56zm0-43a4 4 0 0 0-4 4v19.92l-.5.29a9 9 0 1 0 9 0l-.5-.29V17a4 4 0 0 0-4-4z" data-original="#333333"></path><path fill="#cd212a" d="M40 52a7 7 0 0 1-3.5-13.06l1.5-.86V17a2 2 0 0 1 4 0v21.08l1.5.86A7 7 0 0 1 40 52z" data-original="#cd212a"></path><path fill="#333333" d="M40 53a8 8 0 0 1-4-14.92l1-.58V17a3 3 0 0 1 6 0v20.5l1 .58A8 8 0 0 1 40 53zm0-37a1 1 0 0 0-1 1v21.65l-2 1.16a6 6 0 1 0 6 0l-2-1.16V17a1 1 0 0 0-1-1z" data-original="#333333"></path><path fill="#cd212a" d="M40 51a6 6 0 0 1-3-11.19l2-1.16V17a1 1 0 0 1 2 0v21.65l2 1.16A6 6 0 0 1 40 51z" data-original="#cd212a"></path><path fill="#ab1c23" d="M43.12 39.88a6 6 0 0 1-8.24 8.24 6 6 0 1 0 8.24-8.24z" data-original="#ab1c23"></path></g></svg>