<svg xmlns="http://www.w3.org/2000/svg" version="1.1" xmlns:xlink="http://www.w3.org/1999/xlink" xmlns:svgjs="http://svgjs.com/svgjs" width="512" height="512" x="0" y="0" viewBox="0 0 64 64" style="enable-background:new 0 0 512 512" xml:space="preserve" class=""><g><circle cx="25" cy="27" r="9" fill="#ecbe13" data-original="#ecbe13"></circle><path fill="#333333" d="M25 37a10 10 0 1 1 10-10 10 10 0 0 1-10 10zm0-18a8 8 0 1 0 8 8 8 8 0 0 0-8-8z" data-original="#333333"></path><rect width="4" height="6" x="23" y="9" fill="#ecbe13" rx="2" data-original="#ecbe13"></rect><path fill="#333333" d="M25 16a3 3 0 0 1-3-3v-2a3 3 0 0 1 6 0v2a3 3 0 0 1-3 3zm0-6a1 1 0 0 0-1 1v2a1 1 0 0 0 2 0v-2a1 1 0 0 0-1-1z" data-original="#333333"></path><rect width="4" height="6" x="8" y="24" fill="#ecbe13" rx="2" transform="rotate(-90 10 27)" data-original="#ecbe13"></rect><path fill="#333333" d="M11 30H9a3 3 0 0 1 0-6h2a3 3 0 0 1 0 6zm-2-4a1 1 0 0 0 0 2h2a1 1 0 0 0 0-2z" data-original="#333333"></path><rect width="4" height="6" x="12.39" y="34.61" fill="#ecbe13" rx="2" transform="rotate(-135 14.395 37.612)" data-original="#ecbe13"></rect><path fill="#333333" d="M13.69 41.31a3 3 0 0 1-2.12-5.12L13 34.78A3 3 0 0 1 17.22 39l-1.41 1.41a3 3 0 0 1-2.12.9zm1.41-5.41a1 1 0 0 0-.71.29L13 37.61A1 1 0 0 0 13 39a1 1 0 0 0 1.41 0l1.42-1.41a1 1 0 0 0 0-1.42 1 1 0 0 0-.73-.27z" data-original="#333333"></path><rect width="4" height="6" x="33.61" y="13.39" fill="#ecbe13" rx="2" transform="rotate(-135 35.607 16.395)" data-original="#ecbe13"></rect><path fill="#333333" d="M34.9 20.1a3 3 0 0 1-2.12-5.1l1.41-1.42a3.08 3.08 0 0 1 4.24 0 3 3 0 0 1 0 4.25L37 19.22a3 3 0 0 1-2.1.88zm1.41-5.41a1 1 0 0 0-.7.29l-1.42 1.41a1 1 0 0 0 0 1.42 1 1 0 0 0 1.42 0L37 16.39A1 1 0 0 0 37 15a1 1 0 0 0-.69-.31z" data-original="#333333"></path><rect width="4" height="6" x="12.39" y="13.39" fill="#ecbe13" rx="2" transform="rotate(135 14.393 16.395)" data-original="#ecbe13"></rect><path fill="#333333" d="M15.1 20.1a3 3 0 0 1-2.1-.88l-1.41-1.41a3 3 0 0 1 0-4.25 3.08 3.08 0 0 1 4.24 0L17.22 15a3 3 0 0 1-2.12 5.1zm-1.41-5.41A1 1 0 0 0 13 15a1 1 0 0 0 0 1.41l1.41 1.42a1 1 0 0 0 1.42 0 1 1 0 0 0 0-1.42L14.39 15a1 1 0 0 0-.7-.31z" data-original="#333333"></path><path fill="#e8f3f8" d="M50 28a8.12 8.12 0 0 0-2.66.46A10 10 0 0 0 28 32v.36a5.88 5.88 0 0 0-2-.36 6 6 0 0 0 0 12h24a8 8 0 0 0 0-16z" data-original="#e8f3f8"></path><path fill="#333333" d="M50 45H26a7 7 0 0 1 0-14 7.28 7.28 0 0 1 1 .08 11 11 0 0 1 20.87-3.83A8.72 8.72 0 0 1 50 27a9 9 0 0 1 0 18zM26 33a5 5 0 0 0 0 10h24a7 7 0 0 0 0-14 7.16 7.16 0 0 0-2.32.4l-.93.33-.34-.91A9 9 0 0 0 29 32l.07 1.79-1.39-.49A4.88 4.88 0 0 0 26 33z" data-original="#333333"></path><path fill="#f4f9fc" d="M23 40a5 5 0 0 1 5-5 4.88 4.88 0 0 1 1.68.3l1.39.49-.07-1.47V34a9 9 0 0 1 14.25-7.27A9 9 0 0 0 29 32v.32l.05 1.47-1.39-.49A4.88 4.88 0 0 0 26 33a5 5 0 0 0-2.37 9.37A4.9 4.9 0 0 1 23 40z" data-original="#f4f9fc"></path><path fill="#c1cacf" d="M53.84 30.16A6.92 6.92 0 0 1 55 34a7 7 0 0 1-7 7H24a4.9 4.9 0 0 1-2.37-.63A5 5 0 0 0 26 43h24a7 7 0 0 0 3.84-12.84z" data-original="#c1cacf"></path><g fill="#046d8b"><path d="M27 51a1 1 0 0 1-.71-.29 1 1 0 0 1 0-1.42l2-2a1 1 0 0 1 1.42 1.42l-2 2A1 1 0 0 1 27 51zM35 51a1 1 0 0 1-.71-.29 1 1 0 0 1 0-1.42l2-2a1 1 0 0 1 1.42 1.42l-2 2A1 1 0 0 1 35 51zM42 51a1 1 0 0 1-.71-.29 1 1 0 0 1 0-1.42l2-2a1 1 0 0 1 1.42 1.42l-2 2A1 1 0 0 1 42 51zM49 51a1 1 0 0 1-.71-.29 1 1 0 0 1 0-1.42l2-2a1 1 0 0 1 1.42 1.42l-2 2A1 1 0 0 1 49 51zM30 55a1 1 0 0 1-.71-.29 1 1 0 0 1 0-1.42l2-2a1 1 0 0 1 1.42 1.42l-2 2A1 1 0 0 1 30 55zM37 56a1 1 0 0 1-.71-.29 1 1 0 0 1 0-1.42l2-2a1 1 0 0 1 1.42 1.42l-2 2A1 1 0 0 1 37 56zM44 56a1 1 0 0 1-.71-.29 1 1 0 0 1 0-1.42l2-2a1 1 0 0 1 1.42 1.42l-2 2A1 1 0 0 1 44 56z" fill="#046d8b" data-original="#046d8b" class=""></path></g></g></svg>