<svg xmlns="http://www.w3.org/2000/svg" version="1.1" xmlns:xlink="http://www.w3.org/1999/xlink" xmlns:svgjs="http://svgjs.com/svgjs" width="512" height="512" x="0" y="0" viewBox="0 0 64 64" style="enable-background:new 0 0 512 512" xml:space="preserve" class=""><g><g fill="#046d8b"><path d="M38 53a.94.94 0 0 1-.55-.17 1 1 0 0 1-.28-1.38l4-6a1 1 0 1 1 1.66 1.1l-4 6A1 1 0 0 1 38 53zM44 53a.94.94 0 0 1-.55-.17 1 1 0 0 1-.28-1.38l4-6a1 1 0 1 1 1.66 1.1l-4 6A1 1 0 0 1 44 53zM12 53a.94.94 0 0 1-.55-.17 1 1 0 0 1-.28-1.38l4-6a1 1 0 0 1 1.66 1.1l-4 6A1 1 0 0 1 12 53zM18 53a.94.94 0 0 1-.55-.17 1 1 0 0 1-.28-1.38l4-6a1 1 0 0 1 1.66 1.1l-4 6A1 1 0 0 1 18 53z" fill="#046d8b" data-original="#046d8b"></path></g><path fill="#c2cbce" d="M49 18a8.12 8.12 0 0 0-2.66.46A10 10 0 0 0 27 22v.36a5.88 5.88 0 0 0-2-.36 6 6 0 0 0 0 12h24a8 8 0 0 0 0-16z" data-original="#c2cbce" class=""></path><path fill="#333333" d="M49 35H25a7 7 0 0 1 0-14 7.28 7.28 0 0 1 1 .08 11 11 0 0 1 20.87-3.83A8.72 8.72 0 0 1 49 17a9 9 0 0 1 0 18zM25 23a5 5 0 0 0 0 10h24a7 7 0 0 0 0-14 7.16 7.16 0 0 0-2.32.4l-.93.33-.34-.91A9 9 0 0 0 28 22l.07 1.79-1.39-.49A4.92 4.92 0 0 0 25 23z" data-original="#333333" class=""></path><path fill="#d9dfe1" d="M22 30a5 5 0 0 1 5-5 4.92 4.92 0 0 1 1.68.3l1.39.49-.07-1.47V24a9 9 0 0 1 14.25-7.27A9 9 0 0 0 28 22v.32l.05 1.47-1.39-.49A4.92 4.92 0 0 0 25 23a5 5 0 0 0-2.37 9.37A4.9 4.9 0 0 1 22 30z" data-original="#d9dfe1"></path><path fill="#a1a8ac" d="M52.84 20.16A6.92 6.92 0 0 1 54 24a7 7 0 0 1-7 7H23a4.9 4.9 0 0 1-2.37-.63A5 5 0 0 0 25 33h24a7 7 0 0 0 3.84-12.84z" data-original="#a1a8ac" class=""></path><path fill="#e8f3f8" d="M37 26a8.12 8.12 0 0 0-2.66.46A10 10 0 0 0 15 30v.36a5.88 5.88 0 0 0-2-.36 6 6 0 0 0 0 12h24a8 8 0 0 0 0-16z" data-original="#e8f3f8"></path><path fill="#333333" d="M37 43H13a7 7 0 0 1 0-14 7.28 7.28 0 0 1 1 .08 11 11 0 0 1 20.87-3.83A8.72 8.72 0 0 1 37 25a9 9 0 0 1 0 18zM13 31a5 5 0 0 0 0 10h24a7 7 0 0 0 0-14 7.16 7.16 0 0 0-2.32.4l-.93.33-.34-.91A9 9 0 0 0 16 30l.07 1.79-1.39-.49A4.92 4.92 0 0 0 13 31z" data-original="#333333" class=""></path><path fill="#f4f9fc" d="M10 38a5 5 0 0 1 5-5 4.92 4.92 0 0 1 1.68.3l1.39.49-.07-1.47V32a9 9 0 0 1 14.25-7.27A9 9 0 0 0 16 30v.32l.05 1.47-1.39-.49A4.92 4.92 0 0 0 13 31a5 5 0 0 0-2.37 9.37A4.9 4.9 0 0 1 10 38z" data-original="#f4f9fc"></path><path fill="#c1cacf" d="M40.84 28.16A6.92 6.92 0 0 1 42 32a7 7 0 0 1-7 7H11a4.9 4.9 0 0 1-2.37-.63A5 5 0 0 0 13 41h24a7 7 0 0 0 3.84-12.84z" data-original="#c1cacf"></path><path fill="#046d8b" d="M30 54a1 1 0 0 1-1-1v-8a1 1 0 0 1 2 0v8a1 1 0 0 1-1 1z" data-original="#046d8b"></path><path fill="#046d8b" d="M34 50h-8a1 1 0 0 1 0-2h8a1 1 0 0 1 0 2z" data-original="#046d8b"></path><path fill="#046d8b" d="M32.83 52.83a1 1 0 0 1-.71-.29l-5.66-5.66a1 1 0 0 1 1.42-1.42l5.66 5.66a1 1 0 0 1 0 1.42 1 1 0 0 1-.71.29z" data-original="#046d8b"></path><path fill="#046d8b" d="M27.17 52.83a1 1 0 0 1-.71-.29 1 1 0 0 1 0-1.42l5.66-5.66a1 1 0 0 1 1.42 1.42l-5.66 5.66a1 1 0 0 1-.71.29z" data-original="#046d8b"></path></g></svg>