<svg xmlns="http://www.w3.org/2000/svg" version="1.1" xmlns:xlink="http://www.w3.org/1999/xlink" xmlns:svgjs="http://svgjs.com/svgjs" width="512" height="512" x="0" y="0" viewBox="0 0 512 512" style="enable-background:new 0 0 512 512" xml:space="preserve"><g><path fill="#ecf5ff" d="M15.453 199.734h481.095v285.784H15.453z" data-original="#ecf5ff"></path><path fill="#dceafc" d="M465.642 199.734h30.905v285.784h-30.905z" data-original="#dceafc"></path><path fill="#ecf5ff" d="M256 109.328a7.725 7.725 0 0 1-7.726-7.726V35.484a7.726 7.726 0 1 1 15.452 0v66.118a7.725 7.725 0 0 1-7.726 7.726z" data-original="#ecf5ff"></path><path fill="#db8894" d="M315.532 46.358h-67.258V7.211A7.211 7.211 0 0 1 255.485 0h60.047a7.211 7.211 0 0 1 7.211 7.211v31.936a7.211 7.211 0 0 1-7.211 7.211z" data-original="#db8894"></path><path fill="#d4717f" d="M315.532 0h-30.905a7.211 7.211 0 0 1 7.211 7.211v31.936a7.211 7.211 0 0 1-7.211 7.211h30.905a7.211 7.211 0 0 0 7.211-7.211V7.211A7.212 7.212 0 0 0 315.532 0z" data-original="#d4717f"></path><path fill="#bdd8fc" d="M504.789 215.476H7.211A7.211 7.211 0 0 1 0 208.265v-39.086a7.211 7.211 0 0 1 7.211-7.211h104.375a20.6 20.6 0 0 0 10.006-2.593L252.497 86.65a7.21 7.21 0 0 1 7.004 0l130.905 72.725a20.61 20.61 0 0 0 10.006 2.593h104.375a7.211 7.211 0 0 1 7.211 7.211v39.086a7.209 7.209 0 0 1-7.209 7.211z" data-original="#bdd8fc"></path><path fill="#9dc7fb" d="M504.789 161.967h-30.905a7.211 7.211 0 0 1 7.211 7.211v39.086a7.211 7.211 0 0 1-7.211 7.211h30.905a7.211 7.211 0 0 0 7.211-7.211v-39.086a7.212 7.212 0 0 0-7.211-7.211z" data-original="#9dc7fb"></path><circle cx="256" cy="158.733" r="27.464" fill="#4f6d8f" data-original="#4f6d8f"></circle><path fill="#455e7e" d="M256 131.27a27.33 27.33 0 0 0-15.453 4.76c7.25 4.944 12.011 13.267 12.011 22.704s-4.761 17.76-12.011 22.704a27.337 27.337 0 0 0 15.453 4.76c15.168 0 27.464-12.296 27.464-27.464 0-15.169-12.296-27.464-27.464-27.464z" data-original="#455e7e"></path><path fill="#bdd8fc" d="M77.264 215.476h52.932V481.03H77.264z" data-original="#bdd8fc"></path><path fill="#9dc7fb" d="M99.29 215.476h30.905V481.03H99.29z" data-original="#9dc7fb"></path><path fill="#4f6d8f" d="M145.648 215.476H61.811v20.604c0 5.69 4.612 10.302 10.302 10.302h63.234c5.69 0 10.302-4.612 10.302-10.302v-20.604z" data-original="#4f6d8f"></path><path fill="#455e7e" d="M114.742 215.476v20.604c0 5.689-4.612 10.302-10.302 10.302h30.905c5.69 0 10.302-4.612 10.302-10.302v-20.604z" data-original="#455e7e"></path><path fill="#4f6d8f" d="M135.346 450.124H72.113c-5.69 0-10.302 4.612-10.302 10.302v20.604h83.837v-20.604c0-5.689-4.612-10.302-10.302-10.302z" data-original="#4f6d8f"></path><path fill="#455e7e" d="M135.346 450.124h-30.905c5.69 0 10.302 4.612 10.302 10.302v20.604h30.905v-20.604c0-5.689-4.612-10.302-10.302-10.302z" data-original="#455e7e"></path><path fill="#bdd8fc" d="M381.805 215.476h52.932V481.03h-52.932z" data-original="#bdd8fc"></path><path fill="#9dc7fb" d="M403.831 215.476h30.905V481.03h-30.905z" data-original="#9dc7fb"></path><path fill="#4f6d8f" d="M450.189 215.476h-83.837v20.604c0 5.69 4.612 10.302 10.302 10.302h63.234c5.69 0 10.302-4.612 10.302-10.302v-20.604z" data-original="#4f6d8f"></path><path fill="#455e7e" d="M419.284 215.476v20.604c0 5.689-4.612 10.302-10.302 10.302h30.905c5.69 0 10.302-4.612 10.302-10.302v-20.604z" data-original="#455e7e"></path><path fill="#4f6d8f" d="M439.887 450.124h-63.234c-5.69 0-10.302 4.612-10.302 10.302v20.604h83.837v-20.604c.001-5.689-4.611-10.302-10.301-10.302z" data-original="#4f6d8f"></path><path fill="#455e7e" d="M439.887 450.124h-30.905c5.69 0 10.302 4.612 10.302 10.302v20.604h30.905v-20.604c0-5.689-4.612-10.302-10.302-10.302z" data-original="#455e7e"></path><path fill="#ce9775" d="M308.568 481.03H203.432V347.465c0-5.69 4.612-10.302 10.302-10.302h84.533c5.69 0 10.302 4.612 10.302 10.302V481.03z" data-original="#ce9775"></path><path fill="#c6855b" d="M298.266 337.163h-30.905c5.689 0 10.302 4.612 10.302 10.302V481.03h30.905V347.465c0-5.69-4.612-10.302-10.302-10.302z" data-original="#c6855b"></path><path fill="#db8894" d="M322.604 292.885H189.395a7.211 7.211 0 0 1-7.211-7.211v-18.709a7.211 7.211 0 0 1 7.211-7.211h133.209a7.211 7.211 0 0 1 7.211 7.211v18.709a7.21 7.21 0 0 1-7.211 7.211z" data-original="#db8894"></path><path fill="#d4717f" d="M322.605 259.754H291.7a7.211 7.211 0 0 1 7.211 7.211v18.709a7.211 7.211 0 0 1-7.211 7.211h30.905a7.21 7.21 0 0 0 7.211-7.211v-18.709a7.211 7.211 0 0 0-7.211-7.211z" data-original="#d4717f"></path><path fill="#bee49d" d="M10.302 481.03h491.396c5.69 0 10.302 4.622 10.302 10.323v10.323c0 5.701-4.612 10.323-10.302 10.323H10.302C4.612 512 0 507.378 0 501.677v-10.323c0-5.702 4.612-10.324 10.302-10.324z" data-original="#bee49d"></path><path fill="#a3d8a4" d="M501.698 481.03h-30.905c5.69 0 10.302 4.622 10.302 10.323v10.323c0 5.701-4.612 10.323-10.302 10.323h30.905c5.69 0 10.302-4.622 10.302-10.323v-10.323c0-5.701-4.612-10.323-10.302-10.323z" data-original="#a3d8a4"></path></g></svg>
