<?xml version="1.0" encoding="UTF-8"?><svg xmlns="http://www.w3.org/2000/svg" xmlns:xlink="http://www.w3.org/1999/xlink" viewBox="0 0 350.29 281.6"><defs><style>.z{fill:url(#j);}.aa{fill:url(#p);}.ab{fill:#905a50;}.ac{fill:url(#m);}.ad{fill:#fff;}.ae{fill:url(#r);}.af{fill:url(#h);}.ag{fill:url(#t);}.ah{fill:url(#i);}.ai{fill:url(#l);}.aj{isolation:isolate;opacity:.1;}.aj,.ak{fill:#33b062;}.al{fill:url(#s);}.am{fill:url(#q);}.an{fill:url(#f);}.ao{fill:url(#g);}.ap{fill:#6dc199;}.aq{fill:url(#n);}.ar{fill:#e95a9b;}.as{fill:#91c650;}.at{fill:url(#e);}.au{fill:#5fbc91;}.av{fill:url(#v);}.aw{fill:url(#y);}.ax{fill:#90c75e;}.ay{fill:url(#o);}.az{fill:url(#d);}.ba{fill:url(#x);}.bb{fill:#a3d5bc;}.bc{fill:none;}.bd{fill:url(#u);}.be{fill:#add37f;}.bf{fill:url(#c);}.bg{fill:url(#w);}.bh{fill:#966257;}.bi{fill:#b9dec2;}.bj{fill:url(#k);}.bk{fill:#f9eca7;}.bl{fill:#6eb661;}</style><linearGradient id="c" x1="-136.1" y1="424.82" x2="-134.25" y2="435.75" gradientTransform="translate(583.8 1888.75) scale(4 -4)" gradientUnits="userSpaceOnUse"><stop offset="0" stop-color="#b8d6eb"/><stop offset="1" stop-color="#9bc7e7"/></linearGradient><linearGradient id="d" x1="-260.58" y1="433.39" x2="-258.73" y2="444.32" gradientTransform="translate(-828.63 1888.75) rotate(-180) scale(4)" xlink:href="#c"/><linearGradient id="e" x1="-173.14" y1="412.18" x2="-149.14" y2="410.8" xlink:href="#c"/><linearGradient id="f" x1="-113.59" y1="413.24" x2="-113.59" y2="419.2" gradientTransform="translate(583.8 1888.75) scale(4 -4)" gradientUnits="userSpaceOnUse"><stop offset="0" stop-color="#f3cdbc"/><stop offset="1" stop-color="#e6a996"/></linearGradient><linearGradient id="g" x1="-102.83" y1="404.7" x2="-94.03" y2="403.14" xlink:href="#c"/><linearGradient id="h" x1="-118.7" y1="423.83" x2="-118.7" y2="400.54" gradientTransform="translate(583.8 1888.75) scale(4 -4)" gradientUnits="userSpaceOnUse"><stop offset=".12" stop-color="#9dc3e8"/><stop offset="1" stop-color="#64abd6"/></linearGradient><linearGradient id="i" x1="-170.63" x2="-170.63" gradientTransform="translate(-532.63 1888.75) rotate(-180) scale(4)" xlink:href="#h"/><linearGradient id="j" x1="-132.91" y1="467.14" x2="-147.01" y2="469.6" gradientTransform="translate(583.8 1888.75) scale(4 -4)" gradientUnits="userSpaceOnUse"><stop offset=".04" stop-color="#f2994d"/><stop offset=".81" stop-color="#e87a3f"/></linearGradient><linearGradient id="k" x1="-115.32" y1="471.89" x2="-114.38" y2="459.02" gradientTransform="translate(583.8 1888.75) scale(4 -4)" gradientUnits="userSpaceOnUse"><stop offset="0" stop-color="#eca124"/><stop offset="1" stop-color="#f5ab55"/></linearGradient><linearGradient id="l" x1="-97.13" y1="453.07" x2="-97.13" y2="425.44" xlink:href="#f"/><linearGradient id="m" x1="-130.05" y1="453.07" x2="-130.05" y2="425.44" xlink:href="#f"/><linearGradient id="n" x1="-113.59" y1="420.72" x2="-113.59" y2="402.55" xlink:href="#f"/><linearGradient id="o" x1="-113.59" y1="535.96" x2="-113.59" y2="449.83" gradientTransform="translate(583.8 1888.75) scale(4 -4)" gradientUnits="userSpaceOnUse"><stop offset="0" stop-color="#8f614c"/><stop offset="1" stop-color="#8f614c"/></linearGradient><linearGradient id="p" x1="-112.7" y1="382.9" x2="-114.97" y2="462.52" gradientTransform="translate(583.8 1888.75) scale(4 -4)" gradientUnits="userSpaceOnUse"><stop offset="0" stop-color="#4f9ec6"/><stop offset="1" stop-color="#1e84b7"/></linearGradient><linearGradient id="q" x1="-111.17" y1="408.58" x2="-108.57" y2="408.56" gradientTransform="translate(583.8 1888.75) scale(4 -4)" gradientUnits="userSpaceOnUse"><stop offset="0" stop-color="#e1dac9"/><stop offset=".67" stop-color="#f3e9dc"/></linearGradient><linearGradient id="r" x1="-111.19" y1="406.31" x2="-108.59" y2="406.28" xlink:href="#q"/><linearGradient id="s" x1="-120.97" y1="463.39" x2="-120.97" y2="422.51" gradientTransform="translate(583.8 1888.75) scale(4 -4)" gradientUnits="userSpaceOnUse"><stop offset="0" stop-color="#947d7d"/><stop offset="1" stop-color="#363638"/></linearGradient><linearGradient id="t" x1="-106.21" x2="-106.21" xlink:href="#s"/><linearGradient id="u" x1="-120.96" y1="449.48" x2="-120.96" y2="438.55" xlink:href="#s"/><linearGradient id="v" x1="-106.22" y1="449.48" x2="-106.22" y2="438.55" xlink:href="#s"/><linearGradient id="w" y1="535.96" y2="449.83" xlink:href="#o"/><linearGradient id="x" x1="-113.58" y1="535.96" x2="-113.58" y2="449.83" xlink:href="#o"/><linearGradient id="y" x1="-113.59" y1="491.49" x2="-113.59" y2="425.29" gradientTransform="translate(583.8 1888.75) scale(4 -4)" gradientUnits="userSpaceOnUse"><stop offset=".05" stop-color="#e87a3f"/><stop offset="1" stop-color="#de5a42"/></linearGradient></defs><g id="a"><g><path class="ad" d="M350.24,128.13c-4.15-19.35-15.59-35.93-32.2-46.68-16.62-10.75-36.43-14.39-55.78-10.24-1.19,.26-1.95,1.43-1.7,2.62,.26,1.19,1.43,1.95,2.62,1.7,18.2-3.9,36.83-.48,52.46,9.63,15.63,10.11,26.38,25.7,30.28,43.9,.12,.57,.47,1.07,.96,1.39,.47,.31,1.07,.43,1.66,.31,1.19-.26,1.95-1.43,1.7-2.62h0Z"/><path class="ad" d="M325.61,133.4c-2.74-12.78-10.29-23.72-21.26-30.82s-24.05-9.5-36.83-6.76c-1.19,.26-1.95,1.43-1.7,2.62,.12,.57,.47,1.07,.96,1.39,.49,.32,1.09,.43,1.66,.31,11.62-2.49,23.52-.31,33.5,6.15s16.85,16.41,19.34,28.04c.26,1.19,1.43,1.95,2.62,1.7,1.19-.26,1.95-1.43,1.7-2.62h0Zm-24.62,5.28c-1.33-6.2-4.99-11.51-10.32-14.96s-11.67-4.61-17.87-3.28c-1.19,.26-1.95,1.43-1.7,2.62,.26,1.19,1.43,1.95,2.62,1.7,5.05-1.08,10.21-.13,14.54,2.67s7.31,7.13,8.4,12.17c.13,.6,.49,1.09,.96,1.39s1.07,.43,1.66,.31c1.19-.26,1.95-1.43,1.7-2.62Z"/></g></g><g id="b"><g><path class="bf" d="M31.79,240.72s-18.17,9.08-29.52,40.88H45.42l2.27-40.88h-15.9Z"/><path class="az" d="M227.09,240.72s18.17,9.08,29.52,40.88h-43.15l-2.27-40.88h15.9Z"/><path class="at" d="M156.69,222.56c-5.88,4.03-15.52,6.8-27.25,6.81-11.73,0-21.37-2.78-27.25-6.81-17.17,2.21-52.23,6.81-70.4,18.17l11.35,40.88H213.46l13.63-40.88c-18.17-11.35-53.23-15.96-70.4-18.17Z"/><path class="an" d="M102.19,195.31h54.5v47.69h-54.5v-47.69Z"/><path class="ao" d="M120.36,242.99h18.17v38.6h-18.17v-38.6Z"/><path class="af" d="M88.56,231.64c0,11.82,11.23,29.43,13.63,31.79l27.25-20.44c-21.71-2.39-27.26-22.52-27.26-27.25,0,0-13.62,1.52-13.62,15.9h0Z"/><path class="ah" d="M170.32,231.64c0,11.82-11.23,29.43-13.63,31.79l-27.25-20.44c21.71-2.39,27.26-22.52,27.26-27.25,0,0,13.62,1.52,13.62,15.9Z"/><path class="z" d="M172.59,9.09c-3.64-3.39-7.27-5.37-11.35-6.81C154.25-.18,139.59-.01,129.44,.01c-10.15-.02-24.81-.19-31.79,2.27-4.09,1.44-7.72,3.43-11.35,6.81-9.1,8.48-19.94,27.92-24.98,49.96H197.57c-5.04-22.04-15.88-41.48-24.98-49.96Z"/><path class="bj" d="M258.88,95.43c0,25.1-57.95,45.46-129.44,45.46S0,120.54,0,95.43,57.95,49.97,129.44,49.97s129.44,20.35,129.44,45.46Z"/><path class="ai" d="M211.19,142.75c0,10.03-7.12,20.76-15.9,20.76s-15.9-10.73-15.9-20.76,7.12-15.57,15.9-15.57,15.9,5.54,15.9,15.57Z"/><path class="ac" d="M79.48,142.75c0,10.03-7.12,20.76-15.9,20.76s-15.9-10.73-15.9-20.76,7.12-15.57,15.9-15.57,15.9,5.54,15.9,15.57Z"/><path class="aq" d="M186.21,95.39H72.67c-5.08,1.23-9.08,6.12-9.08,11.35v36.35c0,38.59,29.52,68.11,65.86,68.11s65.86-29.52,65.86-68.11v-36.35c0-5.25-3.98-10.13-9.08-11.35Z"/><path class="ay" d="M68.35,86.23c-5.64,6.23-9.31,14.23-9.31,22.77,0,16.6,4.54,34.07,4.54,34.07,2.82-15.5,6.81-31.79,18.17-40.62,4.91-3.82,9.79-7.99,15.9-6.81,9.46,1.83,20.92,4.62,31.79,4.54,10.87,.08,22.3-2.55,31.76-4.38,6.1-1.18,12.3,1.61,15.93,6.65,6.38,8.87,15.35,25.12,18.17,40.62,0,0,4.54-17.47,4.54-34.07,0-8.54-3.67-16.55-9.31-22.77-38.59-12.07-85.34-11.97-122.18,0Z"/><path class="aa" d="M207.6,232.38c-5.99-1.86-12.33-3.4-18.61-4.69l-9.59,40.29c-.78,3-3.71,4.54-6.81,4.54H86.29c-3.1,0-6.03-1.54-6.81-4.54l-9.59-40.29c-6.28,1.29-12.62,2.83-18.61,4.69l7.76,31.05c1.46,5.85,2.27,12.14,2.27,18.17H197.57c0-6.03,.81-12.31,2.27-18.17l7.76-31.05Z"/><circle class="am" cx="129.44" cy="254.35" r="2.27"/><circle class="ae" cx="129.44" cy="263.43" r="2.27"/><ellipse class="al" cx="99.92" cy="140.8" rx="6.81" ry="9.08"/><ellipse class="ag" cx="158.96" cy="140.8" rx="6.81" ry="9.08"/><path class="bd" d="M113.54,120.35c-.42,0-.84-.12-1.2-.34-12.62-7.86-20.85-2.57-24.36-.31l-.48,.31c-1.09,.63-2.48,.26-3.11-.83-.6-1.03-.3-2.34,.68-3.01l.45-.29c3.87-2.49,14.16-9.1,29.21,.28,1.06,.66,1.39,2.07,.72,3.13-.41,.66-1.14,1.07-1.93,1.07h0Z"/><path class="av" d="M145.34,120.35c-1.25,0-2.27-1.02-2.27-2.27,0-.78,.4-1.51,1.07-1.93,15.06-9.38,25.35-2.77,29.22-.28l.45,.29c1.03,.71,1.3,2.13,.59,3.16-.67,.98-1.99,1.28-3.01,.68l-.48-.3c-3.51-2.26-11.74-7.55-24.36,.31-.37,.23-.79,.34-1.2,.34Z"/><path class="bg" d="M129.44,177.14c3.22,3.6,9.44,4.55,15.9,4.55,15.9,0,22.71-13.63,22.71-13.63-13.2,1.56-15.44-.04-22.71-4.54-6.06-3.75-10.84-2.79-15.9,2.26-5.06-5.06-9.83-6.03-15.9-2.28-7.27,4.5-9.51,6.1-22.71,4.54,0,0,6.81,13.63,22.71,13.63,6.46,0,12.68-.94,15.9-4.53Z"/><path class="ba" d="M129.44,211.2c30.35,0,55.97-20.6,63.58-49.87-7.03,7.03-18.88,24.42-43.1,29.43-9.49,1.96-11.4-2.27-20.49-2.27s-10.95,4.24-20.44,2.27c-24.22-5.01-36.07-22.4-43.1-29.43,7.61,29.27,33.19,49.87,63.54,49.87Z"/><path class="aw" d="M192.58,42.54c-2.67-7.13-5.82-13.65-9.13-19.21-35.91-6.86-72.12-6.86-108.03,0-3.3,5.56-6.45,12.08-9.13,19.21,42.13-8.26,84.54-8.25,126.28,0h0Z"/></g><path class="aj" d="M282.91,278.77h-52.46c-4.61,0-8.35-3.74-8.35-8.35v-105.96c0-4.61,3.74-8.35,8.35-8.35h52.46c4.61,0,8.35,3.74,8.35,8.35v105.96c0,4.61-3.74,8.35-8.35,8.35Z"/><path class="as" d="M282.91,272.09h-52.46c-4.61,0-8.35-3.74-8.35-8.35v-105.96c0-4.61,3.74-8.35,8.35-8.35h52.46c4.61,0,8.35,3.74,8.35,8.35v105.96c0,4.61-3.74,8.35-8.35,8.35Z"/><path class="ad" d="M222.11,161.37h69.16v98.77h-69.16v-98.77Z"/><path class="ak" d="M282.91,273.48h-52.46c-5.37,0-9.74-4.37-9.74-9.74v-105.96c0-5.37,4.37-9.74,9.74-9.74h52.46c5.37,0,9.74,4.37,9.74,9.74v105.96c0,5.37-4.37,9.74-9.74,9.74Zm-52.46-122.66c-3.84,0-6.96,3.12-6.96,6.96v105.96c0,3.84,3.12,6.96,6.96,6.96h52.46c3.84,0,6.96-3.12,6.96-6.96v-105.96c0-3.84-3.12-6.96-6.96-6.96h-52.46Z"/><path class="bi" d="M261.55,157.05h-9.73c-.77,0-1.39-.62-1.39-1.39s.62-1.39,1.39-1.39h9.73c.77,0,1.39,.62,1.39,1.39s-.62,1.39-1.39,1.39Z"/><circle class="bi" cx="268.04" cy="155.65" r="1.39"/><path class="ap" d="M283.25,249.1v11.05h-53.14v-11.05c0-1.54,1.25-2.78,2.78-2.78h47.57c1.54,0,2.78,1.25,2.78,2.78Z"/><path class="bb" d="M251.97,253.23c0,2.49-.6,4.84-1.65,6.91h-20.2v-11.05c0-1.54,1.25-2.78,2.78-2.78h17.42c1.09,2.14,1.65,4.51,1.65,6.92Z"/><path class="au" d="M283.25,249.1v6.84c-5.27,0-9.55-4.28-9.55-9.55v-.08h6.77c1.54,0,2.78,1.25,2.78,2.78Z"/><path class="ar" d="M302.81,186.99c-2.19,0-3.98-1.78-3.98-3.98s1.78-3.98,3.98-3.98,3.98,1.78,3.98,3.98-1.78,3.98-3.98,3.98h0Zm0-5.17c-.66,0-1.19,.54-1.19,1.19s.54,1.19,1.19,1.19,1.19-.54,1.19-1.19-.54-1.19-1.19-1.19Z"/><path class="as" d="M305.39,198.89c-2.19,0-3.98-1.78-3.98-3.98s1.78-3.98,3.98-3.98,3.98,1.78,3.98,3.98-1.78,3.98-3.98,3.98h0Zm0-5.17c-.66,0-1.19,.54-1.19,1.19s.54,1.19,1.19,1.19,1.19-.54,1.19-1.19-.54-1.19-1.19-1.19Z"/><path class="au" d="M208.53,174.7c-.77,0-1.39-.62-1.39-1.39,0-.92-.75-1.67-1.67-1.67-.77,0-1.39-.62-1.39-1.39s.62-1.39,1.39-1.39c.92,0,1.67-.75,1.67-1.67,0-.77,.62-1.39,1.39-1.39s1.39,.62,1.39,1.39c0,.92,.75,1.67,1.67,1.67,.77,0,1.39,.62,1.39,1.39s-.62,1.39-1.39,1.39c-.92,0-1.67,.75-1.67,1.67,0,.77-.62,1.39-1.39,1.39Zm1.32,81.9c-.77,0-1.39-.62-1.39-1.39,0-.92-.75-1.67-1.67-1.67-.77,0-1.39-.62-1.39-1.39s.62-1.39,1.39-1.39c.92,0,1.67-.75,1.67-1.67,0-.77,.62-1.39,1.39-1.39s1.39,.62,1.39,1.39c0,.92,.75,1.67,1.67,1.67,.77,0,1.39,.62,1.39,1.39s-.62,1.39-1.39,1.39c-.92,0-1.67,.75-1.67,1.67,0,.77-.62,1.39-1.39,1.39Z"/><path class="ar" d="M205.47,243.25c-.77,0-1.39-.62-1.39-1.39,0-.92-.75-1.67-1.67-1.67-.77,0-1.39-.62-1.39-1.39s.62-1.39,1.39-1.39c.92,0,1.67-.75,1.67-1.67,0-.77,.62-1.39,1.39-1.39s1.39,.62,1.39,1.39c0,.92,.75,1.67,1.67,1.67,.77,0,1.39,.62,1.39,1.39s-.62,1.39-1.39,1.39c-.92,0-1.67,.75-1.67,1.67,0,.77-.62,1.39-1.39,1.39Z"/><g><rect class="bc" x="190" y="119" width="109" height="111.14"/><path class="bk" d="M275.9,205.32c0,10.88-8.65,19.7-19.32,19.7s-19.32-8.82-19.32-19.7,8.65-19.7,19.32-19.7,19.32,8.82,19.32,19.7"/><path class="bh" d="M256.59,205.32c-2.12-.17-3.9-.1-5.21,0-3.31,.27-6.99,.57-10.21,3.06-1.42,1.09-2.34,2.3-2.91,3.16,.56,1.73,2,5.35,5.51,8.51,1.13,1.02,3.95,3.32,8.14,4.38,2.06,.52,3.8,.58,4.69,.58,2.02,0,3.66-.32,4.69-.58,.75-.19,3.62-.97,6.52-3.07,4.57-3.31,6.45-7.88,7.1-9.76-2.35-1.96-4.54-3.04-6.09-3.66-2.02-.81-3.73-1.14-6.84-1.75-2.2-.43-4.05-.7-5.38-.86Z"/><path class="ab" d="M246.37,217.76c0,1.64,.2,3.2,.59,4.63,1.13,.67,2.33,1.21,3.57,1.63-.76-1.84-1.14-3.98-1.14-6.26,0-6.34,2.96-11.57,8.71-12.35-.48-.07-.99-.1-1.51-.1-6.74,0-10.22,5.57-10.22,12.44"/><path class="be" d="M241.79,185.62c-.11-.02-.22,.06-.23,.18,0,.02,0,.04,0,.06,.22,1.58,1.41,9.52,3.43,11.59,1.6,1.63,6.18,2.52,9.58,2.03,.3-.04,.53-.28,.57-.58,.48-3.47-.39-8.14-1.99-9.77-2.02-2.06-9.81-3.27-11.36-3.5"/><path class="ax" d="M247.12,195.27c-1.49-1.53-2.53-6.27-3.06-9.27-1.04-.19-1.87-.32-2.27-.37-.11-.02-.22,.06-.23,.18,0,.02,0,.04,0,.06,.22,1.58,1.41,9.52,3.43,11.59,1.6,1.63,6.18,2.52,9.58,2.03,.3-.04,.53-.28,.57-.58,.07-.47,.11-.96,.12-1.47-3.15,.11-6.76-.74-8.14-2.15"/><path class="be" d="M271.62,185.86c.02-.11-.06-.22-.17-.24-.02,0-.04,0-.06,0-1.55,.22-9.34,1.44-11.36,3.5-1.6,1.63-2.47,6.3-1.99,9.77,.04,.3,.27,.54,.57,.58,3.4,.49,7.99-.4,9.58-2.03,2.02-2.06,3.21-10.01,3.43-11.59"/><path class="ax" d="M266.05,195.27c1.49-1.53,2.53-6.27,3.06-9.27,1.04-.19,1.87-.32,2.27-.37,.11-.02,.22,.06,.23,.18,0,.02,0,.04,0,.06-.22,1.58-1.41,9.52-3.43,11.59-1.6,1.63-6.18,2.52-9.58,2.03-.3-.04-.53-.28-.57-.58-.07-.47-.11-.96-.12-1.47,3.15,.11,6.76-.74,8.14-2.15"/><path class="bl" d="M266.1,191.23c-.23-.22-.59-.19-.8,.03l-8.36,8.52c-.09,.1-.22,.15-.35,.15-.13,0-.26-.05-.35-.15l-8.36-8.52c-.22-.22-.58-.25-.8-.03-.23,.22-.24,.58-.02,.82,0,0,0,0,.01,.01l7.08,7.21c.97,.99,1.45,2.38,1.3,3.77l-.81,7.64c-.13,1.18,.78,2.22,1.95,2.22s2.08-1.03,1.95-2.22l-.81-7.64c-.15-1.39,.33-2.78,1.3-3.77l7.08-7.21c.22-.23,.22-.59,0-.82,0,0,0,0-.01-.01"/></g></g></svg>