<svg xmlns="http://www.w3.org/2000/svg" version="1.1" xmlns:xlink="http://www.w3.org/1999/xlink" xmlns:svgjs="http://svgjs.com/svgjs" width="512" height="512" x="0" y="0" viewBox="0 0 512 512" style="enable-background:new 0 0 512 512" xml:space="preserve"><g><path d="m0 192 246.528 156.896c2.816 2.08 6.144 3.104 9.472 3.104s6.656-1.024 9.472-3.104L512 192 265.6 3.2a16.032 16.032 0 0 0-19.2 0L0 192z" style="" fill="#64b5f6" data-original="#64b5f6"></path><path d="M416 0H96C78.368 0 64 14.368 64 32v352c0 8.832 7.168 16 16 16h352c8.832 0 16-7.168 16-16V32c0-17.632-14.336-32-32-32z" style="" fill="#eceff1" data-original="#eceff1"></path><path d="M144 96h224c8.832 0 16-7.168 16-16s-7.168-16-16-16H144c-8.832 0-16 7.168-16 16s7.168 16 16 16zM368 128H144c-8.832 0-16 7.168-16 16s7.168 16 16 16h224c8.832 0 16-7.168 16-16s-7.168-16-16-16zM272 192H144c-8.832 0-16 7.168-16 16s7.168 16 16 16h128c8.832 0 16-7.168 16-16s-7.168-16-16-16z" style="" fill="#90a4ae" data-original="#90a4ae"></path><path d="M265.472 348.896c-2.816 2.08-6.144 3.104-9.472 3.104s-6.656-1.024-9.472-3.104L0 192v288c0 17.664 14.336 32 32 32h448c17.664 0 32-14.336 32-32V192L265.472 348.896z" style="" fill="#1e88e5" data-original="#1e88e5"></path><path d="M480 512H32c-17.952 0-32-14.048-32-32a16.02 16.02 0 0 1 6.528-12.896l240-160c2.816-2.08 6.144-3.104 9.472-3.104s6.656 1.024 9.472 3.104l240 160A16.02 16.02 0 0 1 512 480c0 17.952-14.048 32-32 32z" style="" fill="#2196f3" data-original="#2196f3"></path></g></svg>
