<svg xmlns="http://www.w3.org/2000/svg" version="1.1" xmlns:xlink="http://www.w3.org/1999/xlink" xmlns:svgjs="http://svgjs.com/svgjs" width="512" height="512" x="0" y="0" viewBox="0 0 512 512" style="enable-background:new 0 0 512 512" xml:space="preserve"><g><path fill="#ffd064" d="M230.094 94.206a7.714 7.714 0 0 1-6.229-3.148c-7.026-9.546-19.528-20.497-39.201-18.396-23.161 2.467-40.361-4.904-50.713-11.521a7.726 7.726 0 0 1 8.321-13.019c8.269 5.284 22.052 11.171 40.756 9.175 28.388-3.014 45.567 14.118 53.282 24.603a7.726 7.726 0 0 1-6.216 12.306z" data-original="#ffd064"></path><path fill="#ffd064" d="M149.207 135.233a7.683 7.683 0 0 1-4.035-1.143 7.725 7.725 0 0 1-2.542-10.626c9.903-16.133 28.051-27.221 52.483-32.065 17.814-3.531 32.761-2.564 33.387-2.52a7.725 7.725 0 0 1 7.179 8.236c-.292 4.254-3.988 7.444-8.227 7.18-.536-.036-52.996-3.146-71.654 27.252a7.72 7.72 0 0 1-6.591 3.686z" data-original="#ffd064"></path><path fill="#eabc6b" d="M265.662 431.277c126.881 0 197.039-186.11-3.326-329.853-4.984-3.576-7.944-9.333-7.877-15.467a25.142 25.142 0 0 1 4.568-14.143c9.38-13.395 22.882-36.309 30.979-54.765 1.939-4.42-.836-9.174-6.023-9.174C271.948 7.876 271.948 0 259.913 0s-12.035 7.876-24.071 7.876c-10.256 0-14.464-8.824-19.45-2.406-14.542 18.716 35.266 84.533 35.266 84.533-219.974 144.61-149.047 341.275-19.171 341.275h33.175z" data-original="#eabc6b"></path><path fill="#e8ae4d" d="M315.54 90.002s50.547-65.604 36.012-84.423c-4.954-6.414-9.178 2.297-19.423 2.297C320.092 7.875 320.092 0 308.055 0c-12.036 0-12.036 7.875-24.072 7.875-.593 0-1.134-.033-1.671-.07-4.836 20.73-26.629 53.025-39.1 70.317 4.911 7.207 8.447 11.879 8.447 11.879a498.765 498.765 0 0 0-8.637 5.816c210.171 144.459 139.847 335.459 11.31 335.459h81.158c130.269.001 200.757-196.183-19.95-341.274z" data-original="#e8ae4d"></path><path fill="#ffe07d" d="M324.939 113.336c-29.371 7.418-58.388 7.418-87.764 0-10.224-2.582-16.02-14.079-12.341-24.53l.123-.351c3.085-8.762 11.834-13.679 20.409-11.526 24.05 6.038 47.324 6.04 71.381 0 8.575-2.153 17.324 2.764 20.409 11.526l.123.351c3.68 10.451-2.116 21.948-12.34 24.53z" data-original="#ffe07d"></path><path fill="#ffddce" d="m48.777 465.019 111.856 41.634A85.118 85.118 0 0 0 190.325 512h115.276a85.116 85.116 0 0 0 45.559-13.219l144.337-91.46c9.523-8.456 11.288-22.666 4.124-33.195-7.839-11.52-20.806-13.522-35.075-6.775L324.02 429.225l.166-22.799c-1.861-18.714-16.27-33.733-34.89-36.367l-85.576-9.853c-19.741-2.793-29.605-9.409-46.815-19.476a153.38 153.38 0 0 0-77.445-20.988H48.777z" data-original="#ffddce"></path><path fill="#ffddce" d="M153.84 484.469a89.49 89.49 0 0 0 31.214 5.621H306.24a89.472 89.472 0 0 0 37.243-8.127l84.739-53.696c7.873-4.989 12.871-13.673 12.615-22.99a26.544 26.544 0 0 0-4.605-14.235s-2.58-4.421-5.231-8.921L324.02 429.225l.166-22.799c-1.861-18.714-16.27-33.733-34.89-36.367l-85.576-9.853c-19.741-2.793-29.605-9.409-46.815-19.476a153.38 153.38 0 0 0-77.445-20.988H48.777v125.621z" data-original="#ffddce"></path><path fill="#ffcbbe" d="M499.62 374.126c-7.839-11.52-20.806-13.522-35.075-6.775l-38.653 17.019c1.872 2.963 3.361 5.328 3.361 5.328 7.164 10.529 5.399 24.739-4.124 33.195l-84.103 53.292a85.11 85.11 0 0 1-35.427 7.731H190.325a85.118 85.118 0 0 1-29.692-5.347L48.777 436.934v28.084l111.856 41.635A85.118 85.118 0 0 0 190.325 512h115.277a85.116 85.116 0 0 0 45.559-13.219l144.337-91.46c9.521-8.456 11.287-22.667 4.122-33.195z" data-original="#ffcbbe"></path><path fill="#f5dbcc" d="m313.694 382.938-.004.55.363-.16c-.118-.132-.24-.259-.359-.39z" data-original="#f5dbcc"></path><path fill="#ffcbbe" d="M324.019 429.211H236.64c-4.267 0-7.726-3.458-7.726-7.726s3.458-7.726 7.726-7.726h87.492z" data-original="#ffcbbe"></path><path fill="#407093" d="M72.846 487.299c0 8.116-6.579 14.695-14.695 14.695H22.685c-8.116 0-14.695-6.579-14.695-14.695V307.363c0-8.116 6.579-14.695 14.695-14.695h35.466c8.116 0 14.695 6.579 14.695 14.695z" data-original="#407093"></path><path fill="#ffffff" d="M300.616 239.427a385.264 385.264 0 0 1-9.798-3.602v-49.26c9.138 1.515 14.624 6.242 15.026 6.599a7.724 7.724 0 0 0 10.875-.479 7.725 7.725 0 0 0-.441-10.917c-.543-.503-10.005-9.027-25.461-10.807v-10.985c0-4.267-3.458-7.726-7.726-7.726s-7.726 3.458-7.726 7.726v11.611a57.171 57.171 0 0 0-5.732 1.401c-13.106 3.947-22.902 15.185-25.567 29.326-2.418 12.832 1.65 25.173 10.618 32.207 5.148 4.038 11.63 7.735 20.681 11.687v61.102c-8.941-.375-14.432-2.059-24.029-8.336a7.725 7.725 0 0 0-8.458 12.93c12.612 8.251 21.043 10.403 32.487 10.848v12.264c0 4.267 3.458 7.726 7.726 7.726s7.726-3.458 7.726-7.726v-12.807c21.688-3.519 34.344-21.074 37.096-37.45 3.442-20.461-7.275-38.254-27.297-45.332zm-36.396-17.065c-4.411-3.459-6.314-10.045-4.968-17.187 1.247-6.623 5.801-14.67 14.839-17.392.43-.13.853-.242 1.276-.355v41.733c-4.627-2.309-8.255-4.531-11.147-6.799zm48.457 59.833c-1.705 10.139-9.147 20.963-21.859 24.221v-54.094c1.503.55 3.039 1.105 4.647 1.673 19.227 6.796 18.035 23.303 17.212 28.2z" data-original="#ffffff"></path></g></svg>
