<svg xmlns="http://www.w3.org/2000/svg" version="1.1" xmlns:xlink="http://www.w3.org/1999/xlink" xmlns:svgjs="http://svgjs.com/svgjs" width="512" height="512" x="0" y="0" viewBox="0 0 512 512" style="enable-background:new 0 0 512 512" xml:space="preserve"><g><path fill="#ff1f3e" d="M507.606 438.193 245.08 175.667l69.727-69.727a15 15 0 0 0-10.606-25.607H175.667c-3.979 0-7.793 1.58-10.606 4.394L36.527 213.26c-5.858 5.858-5.858 15.355 0 21.213l64.267 64.267c5.857 5.858 15.355 5.858 21.213 0l53.66-53.66 262.527 262.526c2.929 2.929 6.768 4.394 10.606 4.394s7.678-1.464 10.606-4.394l48.2-48.2c5.858-5.858 5.858-15.355 0-21.213z" data-original="#ff1f3e"></path><path fill="#b20042" d="m483.506 483.506 24.1-24.1c5.858-5.858 5.858-15.355 0-21.213L245.08 175.667l69.727-69.727a15 15 0 0 0-10.606-25.607H175.667c-3.979 0-7.793 1.58-10.606 4.394l-40.167 40.167z" data-original="#b20042"></path><path fill="#ff6379" d="M63.2 512a14.946 14.946 0 0 1-10.606-4.394l-48.2-48.2c-5.858-5.858-5.858-15.355 0-21.213l96.4-96.4c5.544-5.546 14.427-5.883 20.377-.775.503.429 53.062 44.581 118.763 44.581 111.294 0 177.8-82.232 177.8-161.733 0-130.453-104.215-195.413-105.268-196.054A15 15 0 0 1 324.33.561C359.287 10.4 512 73.949 512 256.001c0 129.116-93.92 239.932-239.933 239.932-64.21 0-119.931-29.86-142.642-43.945l-55.618 55.618A14.95 14.95 0 0 1 63.2 512z" data-original="#ff6379"></path><path fill="#ff1f3e" d="M324.33.563a15.003 15.003 0 0 0-17.817 8.452 14.999 14.999 0 0 0 5.953 18.799c1.053.641 105.268 65.601 105.268 196.054 0 47.494-23.742 95.956-66.581 127.284l84.309 84.309C484.242 390.95 512 326.183 512 256.001 512 73.949 359.287 10.4 324.33.563z" data-original="#ff1f3e"></path></g></svg>
