<svg xmlns="http://www.w3.org/2000/svg" version="1.1" xmlns:xlink="http://www.w3.org/1999/xlink" xmlns:svgjs="http://svgjs.com/svgjs" width="512" height="512" x="0" y="0" viewBox="0 0 512.001 512.001" style="enable-background:new 0 0 512 512" xml:space="preserve" class=""><g><path d="m365.804 281.354-100.183 26.05a38.289 38.289 0 0 1-18.895.095L141.04 281.145c-16.76-4.179-28.522-19.234-28.522-36.508V129.172C112.517 57.832 170.35 0 241.69 0h23.099c71.34 0 129.172 57.832 129.172 129.172V244.94c0 17.133-11.575 32.102-28.157 36.414z" style="" fill="#fd9727" data-original="#fd9727" class=""></path><path d="M264.789 0H241.69c-5.802 0-11.513.389-17.113 1.13 63.25 8.373 112.06 62.504 112.06 128.042V244.94c0 17.133-11.575 32.103-28.157 36.415l-81.556 21.206 19.803 4.938a38.277 38.277 0 0 0 18.895-.095l100.183-26.05c16.582-4.312 28.157-19.281 28.157-36.415V129.172C393.961 57.832 336.129 0 264.789 0z" style="" fill="#ff6d3a" data-original="#ff6d3a"></path><path d="M118.496 209.813h27.41v-66.921h-27.41c-8.053 0-14.581 6.528-14.581 14.581v37.758c0 8.054 6.528 14.582 14.581 14.582zM393.504 209.813h-27.41v-66.921h27.41c8.053 0 14.581 6.528 14.581 14.581v37.758c0 8.054-6.528 14.582-14.581 14.582z" style="" fill="#3d6687" data-original="#3d6687"></path><path d="M317.892 326.579a20.529 20.529 0 0 1-16.483-20.126V260.18H210.592v46.273a20.529 20.529 0 0 1-16.483 20.126l-11.064 2.224v74.309h145.911v-74.309l-11.064-2.224z" style="" fill="#fed9a8" data-original="#fed9a8" class=""></path><path d="m412.435 351.529-91.078-28.398a8.178 8.178 0 0 0-8.06 1.871L256 379.301l-57.297-54.298a8.178 8.178 0 0 0-8.06-1.871L99.565 351.53c-40.38 11.889-68.105 48.955-68.105 91.049v60.676a8.746 8.746 0 0 0 8.746 8.746h431.589a8.746 8.746 0 0 0 8.746-8.746v-60.676c-.001-42.095-27.726-79.161-68.106-91.05z" style="" fill="#ff4c4c" data-original="#ff4c4c"></path><path d="m412.435 351.529-91.078-28.398a8.178 8.178 0 0 0-8.06 1.871l-10.71 10.15 52.524 16.377c40.38 11.889 68.105 48.955 68.105 91.049V512h48.579a8.746 8.746 0 0 0 8.746-8.746v-60.676c-.001-42.094-27.726-79.16-68.106-91.049z" style="" fill="#ef2929" data-original="#ef2929"></path><path d="M256 298.654c-62.512 0-113.187-50.676-113.187-113.187v-31.809c0-62.511 50.676-113.187 113.187-113.187 62.511 0 113.187 50.676 113.187 113.187v31.809c0 62.512-50.675 113.187-113.187 113.187z" style="" fill="#fed9a8" data-original="#fed9a8" class=""></path><path d="M311.862 55.2v130.267c0 52.608-35.893 96.83-84.525 109.522a113.373 113.373 0 0 0 28.662 3.665c62.512 0 113.187-50.676 113.187-113.187v-31.809c.001-42.195-23.091-78.993-57.324-98.458z" style="" fill="#f4c892" data-original="#f4c892" class=""></path><path d="M198.703 325.003 256 379.301l-35.336 12.038a22.585 22.585 0 0 1-24.268-6.494l-43.706-49.88 37.953-11.833a8.177 8.177 0 0 1 8.06 1.871zM313.297 325.003 256 379.301l32.026 10.91a27.809 27.809 0 0 0 29.882-7.996l41.402-47.25-37.953-11.833a8.177 8.177 0 0 0-8.06 1.871z" style="" fill="#d4145a" data-original="#d4145a"></path><path d="M188.389 467.088h-58.258a5.857 5.857 0 0 1-5.857-5.857v-25.804a5.857 5.857 0 0 1 5.857-5.857h58.258a5.857 5.857 0 0 1 5.857 5.857v25.804a5.857 5.857 0 0 1-5.857 5.857z" style="" fill="#eda558" data-original="#eda558"></path><path d="M393.961 153.031s-48.834-3.876-65.544-48.795c0 0-118.049 94.511-215.9 48.795v-23.859C112.517 57.832 170.35 0 241.69 0h23.099c71.34 0 129.172 57.832 129.172 129.172v23.859z" style="" fill="#fd9727" data-original="#fd9727" class=""></path><path d="M264.789 0H241.69c-5.802 0-11.513.389-17.113 1.13 60.141 7.961 107.222 57.294 111.706 118.465 20.593 30.487 57.678 33.436 57.678 33.436v-23.859C393.961 57.832 336.129 0 264.789 0z" style="" fill="#ff6d3a" data-original="#ff6d3a"></path><path d="M422.287 425.836a7.734 7.734 0 0 0-7.734 7.734V512h15.467v-78.431a7.732 7.732 0 0 0-7.733-7.733zM89.713 425.836a7.734 7.734 0 0 0-7.734 7.734V512h15.467v-78.431a7.733 7.733 0 0 0-7.733-7.733z" style="" fill="#d4145a" data-original="#d4145a"></path><path d="M372.341 209.813v14.107a24.833 24.833 0 0 1-20.685 24.533l-77.823 13.346a7.726 7.726 0 1 0 2.611 15.231l77.823-13.345a40.254 40.254 0 0 0 33.526-39.765v-14.107h-15.452z" style="" fill="#3d6687" data-original="#3d6687"></path><path d="M276.179 284.582c-7.148 0-13.47-5.143-14.719-12.426-1.396-8.138 4.071-15.868 12.209-17.264l25.212-4.324c8.14-1.398 15.868 4.07 17.264 12.209 1.396 8.138-4.071 15.868-12.209 17.264l-25.212 4.324c-.855.146-1.706.217-2.545.217z" style="" fill="#d4145a" data-original="#d4145a"></path></g></svg>
